<svg width="313" height="317" viewBox="0 0 313 317" fill="none" xmlns="http://www.w3.org/2000/svg">
<g clip-path="url(#clip0_1_2)">
<path d="M309.194 124.172C306.008 108.385 300.364 93.1969 292.467 79.161C287.382 70.144 281.369 61.6837 274.523 53.9183L269.049 47.8357L267.224 45.7068L265.095 43.882L259.013 38.4077C251.247 31.5626 242.787 25.5486 233.77 20.4641C219.753 12.4616 204.563 6.71431 188.759 3.43293C168.226 -0.929547 147.027 -1.13636 126.413 2.82467C114.683 5.18153 103.257 8.85431 92.3503 13.7733C61.7486 27.5881 36.4559 50.9599 20.2719 80.3775C18.4471 83.4188 16.9264 86.7642 15.4058 89.8055C13.8852 92.8467 12.3645 96.1922 11.148 99.8417C8.81506 105.995 6.88484 112.294 5.36955 118.698C4.45717 122.347 3.54478 125.693 2.93652 129.342C-2.3592 155.512 -0.467445 182.627 8.41084 207.807C12.5965 222.849 19.1681 237.122 27.8751 250.081C43.3878 273.434 65.222 291.892 90.8297 303.304L100.258 307.257L109.686 310.299C115.969 312.149 122.37 313.571 128.846 314.557C141.44 316.378 154.216 316.583 166.862 315.165C178.826 313.774 190.573 310.914 201.837 306.649C207.237 304.621 212.518 302.286 217.651 299.654L222.517 297.525L231.945 292.659C238.074 289.313 243.967 285.553 249.585 281.407C260.365 273.345 270.074 263.943 278.477 253.427C286.484 243.449 293.226 232.518 298.55 220.885C303.469 209.979 307.141 198.552 309.498 186.823C313.601 166.13 313.497 144.824 309.194 124.172V124.172ZM220.084 297.525L212.785 300.567C187.443 310.356 159.973 313.318 133.126 309.155C106.279 304.992 80.9962 293.85 59.8086 276.845C67.5207 282.508 75.772 287.398 84.443 291.443C98.2327 299.403 113.232 305.053 128.846 308.17C156.327 313.67 184.806 311.244 210.961 301.175L220.389 297.221L227.992 293.268L220.084 297.525ZM9.93148 210.24L8.41084 204.462C12.5166 216.768 18.1353 228.516 25.1379 239.437C23.009 236.091 20.8801 232.746 19.0553 229.401C17.2306 226.055 16.0141 223.622 14.4934 220.581C12.9728 217.54 11.7563 214.498 10.5397 211.457L9.93148 210.24ZM54.3343 267.417C34.2444 247.382 20.4143 221.937 14.5284 194.182C8.64261 166.427 10.9551 137.559 21.1842 111.094C22.4008 108.053 23.9214 105.012 25.1379 101.971C26.3544 98.9293 27.8751 95.888 29.6998 93.1509C32.8735 87.4427 36.4298 81.9559 40.3443 76.7279C47.9802 66.5296 56.8699 57.3334 66.8035 49.3564L71.9737 45.4027C78.0889 41.4748 84.494 38.018 91.1338 35.0623L100.562 31.4128L109.99 28.3715C116.273 26.5204 122.674 25.0978 129.15 24.1137C141.646 22.3404 154.315 22.136 166.862 23.5054C178.814 24.7921 190.561 27.5502 201.837 31.7169C212.311 35.6508 222.309 40.7517 231.641 46.9233C248.076 57.9064 262.14 72.0744 273.003 88.5889C278.453 96.8127 283.04 105.578 286.689 114.744C294.321 138.528 295.682 163.879 290.642 188.343C287.613 203.175 282.277 217.439 274.828 230.617C270.091 239.084 264.485 247.034 258.1 254.339L252.93 260.118L251.106 261.942L249.281 263.767L243.198 269.241C235.892 275.625 227.942 281.23 219.476 285.968C206.298 293.418 192.034 298.754 177.202 301.783C157.951 305.758 138.101 305.862 118.81 302.087C108.573 299.992 98.5842 296.832 89.0049 292.659C76.266 286.002 64.5825 277.495 54.3343 267.417V267.417ZM39.432 75.8155C35.5088 81.1436 31.9525 86.7321 28.7875 92.5426C26.9627 95.2798 25.7462 98.6252 24.2255 101.362C22.7049 104.1 21.4884 107.445 20.2719 110.79C10.0431 137.426 7.75925 166.458 13.6971 194.365C19.635 222.273 33.5396 247.86 53.726 268.025C61.3747 275.626 69.8404 282.357 78.9687 288.097C70.9323 283.827 63.2981 278.839 56.159 273.195L49.4682 267.721L47.3393 265.592C26.4921 244.734 12.0366 218.355 5.67368 189.56C4.6689 182.712 4.16069 175.8 4.15304 168.879C4.12957 147.633 8.7439 126.638 17.6738 107.36C26.6038 88.0817 39.6341 70.985 55.8549 57.2637C49.8965 63.0016 44.4048 69.2052 39.432 75.8155V75.8155ZM228.6 292.051L219.78 296.613L210.656 300.567C184.576 310.526 156.198 312.847 128.846 307.257C116.95 304.867 105.403 300.984 94.4792 295.701C102.28 298.695 110.316 301.035 118.505 302.696C137.896 306.503 157.852 306.399 177.202 302.391C192.048 299.258 206.312 293.819 219.476 286.273C227.955 281.437 235.905 275.729 243.198 269.241L248.977 264.071L250.801 262.246L252.626 260.422L257.796 254.643C264.284 247.35 269.992 239.4 274.828 230.921C282.374 217.757 287.812 203.493 290.946 188.647C294.946 169.296 295.05 149.342 291.25 129.95L290.338 125.389L291.555 129.95C294.183 139.384 295.814 149.068 296.421 158.843C296.725 162.188 296.725 164.925 296.725 166.446V171.616C296.725 173.441 296.725 175.874 296.421 179.219C295.895 188.881 294.366 198.462 291.859 207.807C287.786 222.5 281.423 236.458 273.003 249.169C263.663 263.437 251.935 275.988 238.332 286.273L228.6 292.051ZM273.307 249.473C281.62 236.743 287.88 222.786 291.859 208.112C294.488 198.678 296.119 188.994 296.725 179.219C297.029 175.874 297.029 173.137 297.029 171.616V166.142C297.029 164.317 297.029 161.884 296.725 158.539C296.119 148.764 294.488 139.08 291.859 129.646L289.426 121.435C287.354 113.313 284.607 105.378 281.214 97.7128C270.933 74.9398 255.025 55.1586 234.987 40.2325L226.775 34.454L229.816 36.2788C238.282 41.0169 246.233 46.6228 253.539 53.0059L259.317 58.1761L261.142 60.0009L262.967 61.8256L268.137 67.6041C274.52 74.91 280.126 82.8602 284.864 91.3261C292.55 104.563 298.093 118.934 301.287 133.904C305.262 153.155 305.365 173.005 301.591 192.297C299.35 203.295 295.882 214.006 291.25 224.23C286.258 235.209 279.925 245.527 272.395 254.947C264.437 264.899 255.238 273.791 245.023 281.407L243.198 282.623C254.873 273.064 265.026 261.783 273.307 249.169V249.473ZM217.955 30.5004C223.665 33.6724 229.152 37.2288 234.378 41.1449C244.472 48.798 253.565 57.6872 261.446 67.6041C268.957 76.9283 275.29 87.1429 280.302 98.0169L284.864 108.966C281.688 101.774 277.924 94.8572 273.611 88.2848C262.768 71.671 248.703 57.3999 232.25 46.3151C222.829 40.0288 212.729 34.8257 202.141 30.8045C178.775 21.9944 153.553 19.2733 128.846 22.8972C122.268 23.8696 115.765 25.2922 109.382 27.155L99.9536 30.1962L90.5256 34.1499L87.1802 35.6706L97.2164 30.5004C107.438 25.8644 118.151 22.3957 129.15 20.16C148.42 16.277 168.272 16.277 187.543 20.16C196.494 21.9509 205.253 24.5989 213.698 28.0673L217.955 30.5004ZM187.847 19.8559C168.496 15.856 148.541 15.7526 129.15 19.5517C118.062 21.6777 107.248 25.0443 96.9123 29.588C88.1421 33.5063 79.7874 38.295 71.9737 43.882C50.9053 57.1558 33.5486 75.5575 21.5278 97.3651C9.50702 119.173 3.21505 143.674 3.24065 168.575C3.24065 171.312 3.24065 174.049 3.54478 177.09C0.516789 155.196 2.17543 132.908 8.41084 111.703C14.7201 92.9967 24.7502 75.7612 37.8971 61.0344C51.0441 46.3076 67.0358 34.3941 84.9091 26.0115C102.782 17.629 122.167 12.9508 141.897 12.2588C161.626 11.5667 181.291 14.8752 199.708 21.9848L208.832 25.9384H209.44C202.412 23.3496 195.192 21.3158 187.847 19.8559V19.8559ZM0.807623 150.327C0.379489 162.57 1.40034 174.82 3.84891 186.823L4.7613 191.384L5.97781 198.075C1.66281 182.548 -0.083631 166.419 0.807623 150.327V150.327ZM201.837 306.041C190.658 310.181 179.014 312.938 167.166 314.252C154.52 315.67 141.744 315.466 129.15 313.644C122.674 312.661 116.273 311.238 109.99 309.386L100.562 306.345L91.1338 302.696C65.65 291.361 43.9196 273.007 28.4833 249.777C22.2489 240.373 17.1448 230.267 13.2769 219.668L13.8852 220.885C15.4058 223.926 16.9264 226.967 18.4471 229.705C21.6105 235.516 25.1669 241.105 29.0916 246.432C32.515 250.878 36.1696 255.142 40.0402 259.205L46.731 266.2C67.9364 287.359 94.7851 301.966 124.069 308.276C153.354 314.586 183.835 312.332 211.873 301.783L201.837 306.041ZM309.194 186.214C306.818 197.841 303.145 209.164 298.245 219.973C293.017 231.59 286.378 242.52 278.477 252.514C270.074 263.03 260.365 272.433 249.585 280.494C243.967 284.64 238.073 288.4 231.945 291.747L225.863 294.788L231.945 290.835L234.074 289.314L245.327 281.711C255.542 274.095 264.741 265.203 272.699 255.251C280.224 245.827 286.557 235.51 291.555 224.534C296.205 214.213 299.674 203.398 301.895 192.297C305.661 173.004 305.558 153.156 301.591 133.904C298.487 118.953 293.048 104.584 285.472 91.3261C280.636 82.8475 274.928 74.897 268.441 67.6041L263.271 61.8256L261.446 60.0009L259.621 58.1761L253.843 53.0059C246.551 46.5168 238.6 40.8087 230.121 35.9747L223.43 32.3251L218.564 29.588L209.44 25.0261L200.012 21.0724C166.081 7.9846 128.507 7.92064 94.5323 20.8928C60.5575 33.8651 32.5875 58.955 16.0141 91.3261V90.4137C17.5347 87.3724 19.0553 84.027 20.8801 80.9857C24.2368 74.9607 27.9962 69.1691 32.1329 63.6504C40.2118 52.8851 49.6121 43.1782 60.1127 34.7582C70.0888 26.7483 81.0194 20.0061 92.6545 14.6857C103.559 9.76184 114.986 6.08888 126.717 3.73706C147.113 -0.258728 168.1 -0.155345 188.455 4.04118C204.244 7.21754 219.434 12.8625 233.466 20.7683C242.484 25.8509 250.945 31.8649 258.709 38.7118L264.791 44.1862L266.92 46.0109L268.745 48.1398L274.219 54.2224C281.068 61.9851 287.082 70.4457 292.163 79.4651C300.064 93.499 305.709 108.688 308.89 124.476C313.086 144.831 313.19 165.819 309.194 186.214V186.214Z" fill="url(#paint0_linear_1_2)"/>
<path d="M198.727 123.477C198.727 126.019 198.21 128.442 197.275 130.648C194.471 137.264 187.913 141.916 180.288 141.916C176.579 141.916 173.003 140.818 169.943 138.739L168.996 138.095L168.034 138.72C164.837 140.8 161.217 141.899 157.567 141.899C153.432 141.899 149.413 140.524 145.945 137.922L144.883 137.126L143.842 137.947C141.113 140.101 137.931 141.399 134.545 141.783H134.544C134.24 141.818 133.935 141.848 133.628 141.867C133.234 141.896 132.838 141.915 132.438 141.915C122.272 141.915 114 133.644 114 123.477C114 113.31 122.272 105.039 132.438 105.039C134.057 105.039 135.711 105.269 137.353 105.723L138.693 106.093L139.34 104.863C143.244 97.435 150.059 93 157.568 93C164.896 93 171.624 97.2712 175.565 104.425L176.15 105.488L177.349 105.296C178.43 105.122 179.392 105.038 180.29 105.038C190.454 105.039 198.727 113.31 198.727 123.477ZM168.957 142.204C165.438 144.264 161.522 145.348 157.567 145.348C153.096 145.348 148.755 143.998 144.933 141.433C141.829 143.605 138.287 144.898 134.545 145.254V168H180.288V145.365C176.264 145.365 172.369 144.275 168.957 142.204Z" fill="url(#paint1_linear_1_2)"/>
<path d="M65.5684 203.036C65.7147 202.538 66.4167 202.48 66.8555 202.48C67.1773 202.48 67.4698 202.538 67.7623 202.626C68.0256 202.743 68.1426 202.889 68.1133 203.036C67.382 205.727 64.8956 207.306 62.1752 207.306C60.1568 207.306 58.2262 206.546 57.0853 204.791C56.237 203.445 55.886 201.895 56.0323 200.14C56.2663 197.273 57.7581 191.51 60.4201 189.784C61.2684 189.17 62.3214 188.878 63.5793 188.878C65.4806 188.878 67.0603 189.667 67.382 191.686C67.4113 191.891 67.2943 192.066 67.031 192.154C66.7385 192.242 66.446 192.3 66.1242 192.3C65.6854 192.3 64.9249 192.242 64.8371 191.686C64.7201 190.662 64.2521 190.135 63.4623 190.135C63.082 190.135 62.7017 190.282 62.2629 190.603C60.2445 192.329 58.8112 197.127 58.5772 199.906C58.4602 200.929 58.5187 201.982 58.7527 203.036C58.899 203.825 59.3085 204.557 59.9228 205.171C60.5663 205.785 61.2976 206.078 62.1459 206.078C63.8718 206.078 65.1296 204.586 65.5684 203.036V203.036ZM81.9546 193.412V193.675C82.1594 198.15 82.4227 202.538 82.8614 206.985C82.8907 207.189 82.7737 207.336 82.5104 207.423C82.2179 207.511 81.9254 207.57 81.6036 207.57C81.1648 207.57 80.4335 207.54 80.3458 206.985C80.2288 205.902 80.141 204.82 80.0825 203.738C79.0002 205.522 77.3913 206.429 75.3144 206.429C72.0675 206.429 70.5171 204.469 70.3123 201.456C70.2246 200.637 70.2246 199.847 70.2538 199.057C70.3416 197.478 70.3708 195.898 70.3416 194.289C70.3123 192.651 70.3708 191.13 70.4586 189.521C70.5464 188.965 71.2777 188.907 71.7164 188.907C72.0382 188.907 72.3307 188.965 72.6232 189.053C72.8865 189.141 73.0035 189.316 72.9743 189.521C72.945 190.311 72.9158 191.393 72.828 192.885C72.7403 194.348 72.711 195.84 72.7403 197.39C72.7403 199.116 72.8865 203.211 73.9396 204.586C74.3491 205.112 74.7879 205.376 75.2852 205.376C77.011 205.376 78.7662 201.514 79.0002 199.876C79.1464 198.823 79.2927 197.77 79.3805 196.717C79.4682 195.693 79.4682 194.64 79.439 193.587C79.3512 192.095 79.322 190.691 79.322 189.199C79.322 188.644 80.1995 188.585 80.5798 188.585C80.9601 188.585 81.8376 188.644 81.8376 189.199L81.8961 191.305C81.8961 192.008 81.9254 192.71 81.9546 193.412V193.412ZM95.0646 203.036C95.2109 202.538 95.9129 202.48 96.3517 202.48C96.6735 202.48 96.966 202.538 97.2585 202.626C97.5218 202.743 97.6388 202.889 97.6096 203.036C96.8783 205.727 94.3918 207.306 91.6714 207.306C89.653 207.306 87.7224 206.546 86.5816 204.791C85.7333 203.445 85.3822 201.895 85.5285 200.14C85.7625 197.273 87.2544 191.51 89.9163 189.784C90.7646 189.17 91.8177 188.878 93.0755 188.878C94.9769 188.878 96.5565 189.667 96.8783 191.686C96.9075 191.891 96.7905 192.066 96.5272 192.154C96.2347 192.242 95.9422 192.3 95.6204 192.3C95.1816 192.3 94.4211 192.242 94.3333 191.686C94.2163 190.662 93.7483 190.135 92.9585 190.135C92.5782 190.135 92.1979 190.282 91.7592 190.603C89.7408 192.329 88.3074 197.127 88.0734 199.906C87.9564 200.929 88.0149 201.982 88.2489 203.036C88.3952 203.825 88.8047 204.557 89.419 205.171C90.0625 205.785 90.7938 206.078 91.6421 206.078C93.368 206.078 94.6258 204.586 95.0646 203.036V203.036ZM99.7208 200.549L99.6331 194.377C99.6331 193.821 100.511 193.763 100.891 193.763C101.271 193.763 102.149 193.821 102.149 194.377L102.324 206.751C102.324 206.955 102.207 207.102 101.944 207.219C101.71 207.306 101.417 207.336 101.066 207.336C100.715 207.336 100.423 207.306 100.189 207.219C99.9256 207.102 99.8086 206.955 99.7793 206.751L99.7208 200.549ZM100.832 188C101.856 188 102.675 188.79 102.675 189.814C102.675 190.837 101.856 191.627 100.832 191.627C99.8086 191.627 99.0188 190.837 99.0188 189.814C99.0188 188.79 99.8086 188 100.832 188V188ZM113.972 188.41C115.61 188.731 116.136 190.135 116.37 191.627C116.458 192.417 116.517 193.207 116.487 194.026C116.458 194.845 116.429 195.547 116.458 196.103C116.575 199.935 116.634 203.767 116.634 207.599C116.634 208.155 115.727 208.213 115.346 208.213C114.966 208.213 114.089 208.096 114.089 207.599C114.089 203.387 114.03 199.204 113.913 195.02C113.884 194.348 113.855 193.675 113.884 192.973C113.884 191.949 113.708 190.984 113.387 190.048C113.24 189.726 113.036 189.55 112.772 189.521C112.451 189.521 112.1 189.638 111.778 189.901C109.701 191.422 108.56 193.821 108.004 196.278C107.741 197.595 107.595 198.823 107.624 200.023C107.624 202.363 107.712 204.703 107.887 207.043C107.916 207.248 107.799 207.423 107.536 207.511C107.244 207.599 106.951 207.657 106.659 207.657C106.22 207.657 105.459 207.599 105.372 207.043C105.225 204.937 105.138 202.831 105.108 200.725C105.079 200.608 105.079 200.374 105.079 199.993C105.021 196.278 105.108 192.534 105.342 188.819C105.43 188.263 106.191 188.205 106.629 188.205C106.951 188.205 107.244 188.263 107.536 188.351C107.799 188.468 107.916 188.614 107.887 188.819C107.858 189.316 107.829 189.697 107.829 189.96L107.741 191.13C108.999 189.492 110.871 188.293 112.977 188.293C113.387 188.293 113.708 188.322 113.972 188.41V188.41ZM131.937 198.238C132.054 201.397 131.82 204.586 131.206 207.774C131.118 208.33 130.358 208.359 129.919 208.359C129.627 208.359 129.334 208.301 129.042 208.213C128.778 208.096 128.661 207.95 128.69 207.774L128.808 207.131L128.895 206.487C127.871 207.219 126.35 207.57 125.093 207.57C124.215 207.57 123.337 207.394 122.46 207.014C121.612 206.634 120.997 206.019 120.675 205.112C120.412 204.381 120.324 203.591 120.412 202.743C120.588 201.076 121.231 199.642 122.343 198.414C123.484 197.156 124.888 196.542 126.614 196.542C127.608 196.542 128.544 196.776 129.393 197.214C129.305 195.254 128.486 189.843 125.795 189.843C124.069 189.843 121.729 192.183 121.582 193.909C121.495 194.465 120.734 194.523 120.295 194.523C119.973 194.523 119.681 194.465 119.418 194.348C119.154 194.26 119.008 194.114 119.037 193.909C119.271 191.042 123.191 188.527 125.97 188.527C130.855 188.527 131.85 194.377 131.937 198.238V198.238ZM123.074 204.644C123.396 205.61 124.069 206.341 125.122 206.341C127.725 206.341 129.129 203.533 129.217 201.251C129.217 200.52 129.012 199.73 128.573 198.94C128.164 198.15 127.52 197.741 126.643 197.741C124.741 197.741 123.63 200.227 123.162 201.748C122.84 202.801 122.811 203.767 123.074 204.644V204.644ZM156.227 194.289C156.373 195.489 156.432 196.629 156.344 197.682C156.198 199.789 156.022 201.953 155.115 203.913C154.296 205.697 152.424 206.897 150.435 206.897C149.236 206.897 148.153 206.546 147.188 205.814C146.223 205.083 145.608 204.118 145.287 202.948C144.994 201.865 144.877 200.754 144.965 199.642C145.199 195.898 145.725 189.258 150.786 189.258C152.307 189.258 153.536 189.726 154.472 190.691C155.437 191.656 156.022 192.856 156.227 194.289V194.289ZM153.74 199.145L153.799 196.922C153.828 196.132 153.799 195.342 153.77 194.494C153.711 193.646 153.448 192.797 152.951 191.978C152.483 191.13 151.751 190.72 150.757 190.72C150.435 190.72 150.055 190.896 149.674 191.218C148.036 193.529 147.744 196.308 147.539 199.028C147.51 199.789 147.51 200.549 147.539 201.339C147.598 202.772 148.095 204.001 149.002 204.966C149.411 205.405 149.879 205.639 150.376 205.639C150.64 205.639 150.932 205.551 151.196 205.405C152.161 204.791 152.834 203.855 153.155 202.626C153.506 201.397 153.711 200.227 153.74 199.145V199.145ZM164.305 188.527C165.944 188.527 167.406 188.965 167.874 190.72C167.933 190.896 167.816 191.042 167.552 191.13C167.26 191.218 166.967 191.276 166.646 191.276C166.207 191.276 165.505 191.218 165.359 190.72C165.212 190.165 165.008 189.872 164.774 189.872C164.335 189.872 164.013 190.633 163.896 190.954C163.516 191.686 163.252 192.71 163.165 193.997C163.077 195.254 162.989 196.308 162.96 197.127H164.452C165.008 197.127 165.271 197.39 165.271 197.946C165.271 198.501 165.008 198.794 164.452 198.794H162.931C162.901 201.456 163.165 204.293 163.662 207.365C163.691 207.57 163.603 207.716 163.34 207.804C163.048 207.891 162.755 207.95 162.433 207.95C161.995 207.95 161.234 207.921 161.146 207.365C160.649 204.469 160.356 201.602 160.298 198.794H159.245C158.689 198.794 158.426 198.501 158.426 197.946C158.426 197.39 158.689 197.127 159.245 197.127H160.327C160.415 194.991 160.649 191.13 162.141 189.463C162.638 188.907 163.369 188.585 164.305 188.527V188.527ZM196.083 188.995C197.751 189.258 198.336 190.633 198.599 192.125C198.745 192.914 198.804 193.733 198.775 194.552C198.745 195.371 198.745 196.074 198.745 196.629L198.658 202.187L198.541 207.716C198.541 208.272 197.663 208.33 197.283 208.33C196.902 208.33 196.025 208.272 196.025 207.716L196.171 199.379L196.259 195.371C196.288 194.026 196.142 192.71 195.82 191.422L195.615 190.603C195.557 190.399 195.44 190.311 195.264 190.311C195.235 190.311 195.089 190.369 194.826 190.457C192.924 191.569 191.725 196.425 191.491 198.414C191.315 199.672 191.257 200.988 191.286 202.363C191.315 202.655 191.052 202.86 190.467 202.948C190.262 203.006 190.028 203.036 189.706 203.036C189.355 203.036 188.478 202.948 188.478 202.45C188.507 201.163 188.536 199.876 188.624 198.589C188.653 197.331 188.653 196.044 188.624 194.757L188.566 193.061C188.536 192.242 188.361 191.276 187.922 190.545C187.805 190.282 187.717 190.135 187.63 190.135C187.6 190.135 187.542 190.194 187.513 190.311C187.425 190.34 187.249 190.486 186.986 190.779C185.845 192.037 184.997 193.236 184.412 194.377C183.856 195.518 183.417 196.922 183.125 198.589C182.627 201.28 182.598 204.03 182.598 206.721C182.598 207.277 181.721 207.336 181.34 207.336C180.96 207.336 180.083 207.219 180.083 206.721V203.679C180.083 203.357 180.083 203.182 180.112 203.094C180.2 198.267 180.287 193.558 180.521 188.731C180.521 188.234 181.399 188.117 181.779 188.117C182.101 188.117 182.393 188.176 182.686 188.263C182.949 188.351 183.066 188.527 183.037 188.731L182.949 190.603L182.891 192.476C183.417 191.598 184.09 190.808 184.938 190.077C185.787 189.346 186.752 188.965 187.834 188.965C188.624 188.965 189.297 189.229 189.823 189.755C190.321 190.311 190.672 191.013 190.877 191.832C191.9 190.106 193.246 188.936 195.323 188.936C195.352 188.936 195.615 188.965 196.083 188.995V188.995ZM212.908 194.289C213.055 195.489 213.113 196.629 213.025 197.682C212.879 199.789 212.704 201.953 211.797 203.913C210.978 205.697 209.106 206.897 207.116 206.897C205.917 206.897 204.835 206.546 203.87 205.814C202.904 205.083 202.29 204.118 201.968 202.948C201.676 201.865 201.559 200.754 201.646 199.642C201.88 195.898 202.407 189.258 207.468 189.258C208.989 189.258 210.217 189.726 211.153 190.691C212.119 191.656 212.704 192.856 212.908 194.289V194.289ZM210.422 199.145L210.48 196.922C210.51 196.132 210.48 195.342 210.451 194.494C210.393 193.646 210.129 192.797 209.632 191.978C209.164 191.13 208.433 190.72 207.438 190.72C207.116 190.72 206.736 190.896 206.356 191.218C204.718 193.529 204.425 196.308 204.221 199.028C204.191 199.789 204.191 200.549 204.221 201.339C204.279 202.772 204.776 204.001 205.683 204.966C206.093 205.405 206.561 205.639 207.058 205.639C207.321 205.639 207.614 205.551 207.877 205.405C208.842 204.791 209.515 203.855 209.837 202.626C210.188 201.397 210.393 200.227 210.422 199.145V199.145ZM224.848 188.41C226.486 188.731 227.013 190.135 227.247 191.627C227.335 192.417 227.393 193.207 227.364 194.026C227.335 194.845 227.305 195.547 227.335 196.103C227.452 199.935 227.51 203.767 227.51 207.599C227.51 208.155 226.603 208.213 226.223 208.213C225.843 208.213 224.965 208.096 224.965 207.599C224.965 203.387 224.907 199.204 224.79 195.02C224.761 194.348 224.731 193.675 224.761 192.973C224.761 191.949 224.585 190.984 224.263 190.048C224.117 189.726 223.912 189.55 223.649 189.521C223.327 189.521 222.976 189.638 222.654 189.901C220.578 191.422 219.437 193.821 218.881 196.278C218.618 197.595 218.471 198.823 218.501 200.023C218.501 202.363 218.588 204.703 218.764 207.043C218.793 207.248 218.676 207.423 218.413 207.511C218.12 207.599 217.828 207.657 217.535 207.657C217.097 207.657 216.336 207.599 216.248 207.043C216.102 204.937 216.014 202.831 215.985 200.725C215.956 200.608 215.956 200.374 215.956 199.993C215.897 196.278 215.985 192.534 216.219 188.819C216.307 188.263 217.067 188.205 217.506 188.205C217.828 188.205 218.12 188.263 218.413 188.351C218.676 188.468 218.793 188.614 218.764 188.819C218.735 189.316 218.705 189.697 218.705 189.96L218.618 191.13C219.875 189.492 221.748 188.293 223.854 188.293C224.263 188.293 224.585 188.322 224.848 188.41V188.41ZM239.333 188.936C239.421 188.38 240.152 188.322 240.591 188.322C240.913 188.322 241.205 188.38 241.498 188.468C241.761 188.556 241.878 188.731 241.849 188.936C241.41 195.05 241.352 201.163 241.673 207.277C241.673 207.833 240.796 207.891 240.415 207.891C239.099 207.891 239.099 207.482 239.099 206.429C239.07 206.253 239.07 205.961 239.07 205.58C237.929 206.897 236.437 207.54 234.594 207.54C232.166 207.54 230.265 206.165 229.768 203.738C229.592 203.036 229.534 202.216 229.563 201.31C229.621 199.525 230.119 197.975 231.026 196.6C231.962 195.225 233.395 194.552 235.296 194.552C236.7 194.552 237.929 194.991 238.982 195.869C239.041 193.558 239.158 191.247 239.333 188.936V188.936ZM238.426 200.169C238.426 198.414 237.841 196.805 236.232 195.986C235.881 195.84 235.589 195.752 235.384 195.752C234.419 195.752 233.746 196.542 233.249 197.331C232.196 199.145 231.845 201.134 232.196 203.328C232.4 204.293 232.751 205.405 233.541 206.019C233.892 206.253 234.243 206.37 234.594 206.37C235.033 206.37 235.472 206.224 235.911 205.902C237.637 204.586 238.426 202.275 238.426 200.169V200.169ZM253.496 202.801C253.672 202.538 254.052 202.421 254.637 202.421C255.017 202.421 255.368 202.48 255.69 202.597C256.012 202.714 256.07 202.889 255.924 203.094C255.251 204.147 254.432 205.142 253.438 206.048C252.531 206.897 251.361 207.306 249.898 207.306C248.085 207.306 246.739 206.721 245.891 205.522C245.042 204.323 244.604 202.919 244.574 201.31C244.545 200.344 244.604 199.438 244.779 198.531C245.423 195.225 247.324 188.556 251.624 188.556C253.408 188.556 254.579 189.346 255.134 190.954C255.339 191.627 255.398 192.388 255.31 193.178C254.754 197.068 250.893 199.496 247.178 199.584C247.09 200.432 247.09 201.28 247.178 202.129C247.266 202.86 247.5 203.679 247.88 204.557C248.26 205.434 248.904 205.931 249.781 206.019C250.717 206.019 251.478 205.639 252.034 204.849C252.589 204.118 253.057 203.445 253.496 202.801ZM249.459 192.388L249.021 193.236C248.202 194.903 247.646 196.629 247.324 198.414C248.64 198.267 249.781 197.741 250.747 196.834C251.741 195.927 252.414 194.816 252.736 193.558C252.94 192.797 252.97 192.095 252.853 191.481C252.823 191.188 252.677 190.837 252.443 190.428C252.238 189.989 251.946 189.784 251.595 189.784C251.185 189.814 250.776 190.165 250.337 190.837C249.927 191.481 249.635 192.008 249.459 192.388Z" fill="url(#paint2_linear_1_2)"/>
<path d="M100.13 229.609C100.13 230.06 99.9825 230.396 99.7666 230.637C99.9837 230.876 100.13 231.203 100.13 231.636C100.13 232.764 99.2097 233.174 98.5913 233.174H93V228.071H98.4741C99.1395 228.071 100.129 228.48 100.129 229.609L100.13 229.609ZM98.882 232.043C98.9796 231.989 99.0793 231.898 99.0793 231.636C99.0793 231.425 99.0078 231.31 98.8245 231.228C98.6579 231.154 98.4759 231.147 98.4743 231.147H94.0503V232.124H98.5868C98.6326 232.122 98.7694 232.105 98.8822 232.043L98.882 232.043ZM98.882 230.016C98.9796 229.962 99.0793 229.872 99.0793 229.609C99.0793 229.398 99.0079 229.284 98.8246 229.202C98.658 229.127 98.476 229.121 98.4743 229.121H94.0504V230.097H98.5864C98.6322 230.096 98.769 230.079 98.8818 230.016L98.882 230.016ZM108.38 228L108.387 228.525C108.396 229.09 108.168 229.639 107.746 230.069C107.35 230.474 106.622 230.949 105.345 231.06L105.329 233.129L104.279 233.122L104.295 231.065C103.296 230.984 102.465 230.649 101.92 230.1C101.485 229.661 101.25 229.102 101.258 228.525L101.266 228L102.316 228.015L102.308 228.54C102.304 228.837 102.427 229.12 102.666 229.36C103.104 229.802 103.869 230.041 104.819 230.034C105.789 230.027 106.562 229.779 106.996 229.335C107.223 229.102 107.341 228.828 107.337 228.54L107.33 228.015L108.38 228ZM120.993 229.127H114.914V230.104H118.967V231.154H114.914V233.18H113.864V228.077H120.994V229.127L120.993 229.127ZM123.539 232.104H129.618V233.154H122.488V228.051H123.539V232.104L123.539 232.104ZM137.803 228.539C138.214 228.946 138.211 229.534 138.205 230.426C138.205 230.492 138.205 230.561 138.204 230.632C138.202 231.161 138.201 231.543 138.145 231.865C138.098 232.14 137.989 232.536 137.589 232.803C137.083 233.14 136.326 233.148 134.669 233.164C134.41 233.167 134.171 233.169 133.951 233.169C132.638 233.169 131.978 233.099 131.556 232.68C131.117 232.244 131.119 231.601 131.123 230.628C131.127 229.542 131.129 228.887 131.68 228.48C132.155 228.129 132.844 228.12 134.355 228.1L134.656 228.096C136.539 228.069 137.318 228.058 137.803 228.539L137.803 228.539ZM137.162 230.42C137.165 229.908 137.168 229.378 137.069 229.28C136.945 229.157 136.392 229.129 135.656 229.129C135.353 229.129 135.019 229.134 134.671 229.139L134.368 229.143C133.286 229.158 132.504 229.168 132.299 229.319C132.17 229.415 132.168 229.979 132.166 230.632C132.163 231.239 132.161 231.812 132.291 231.94C132.495 232.143 133.595 232.132 134.658 232.121C135.879 232.109 136.762 232.1 137.01 231.935C137.156 231.837 137.158 231.33 137.161 230.628C137.161 230.556 137.162 230.487 137.162 230.42L137.162 230.42ZM146.111 232.076L146.631 232.068L146.647 233.108L146.127 233.116C146.046 233.117 145.955 233.119 145.855 233.119C145.133 233.119 143.975 233.047 143.243 232.326C142.918 232.005 142.712 231.597 142.63 231.109H140.749L140.742 233.118L139.702 233.114L139.719 228.584V228.063H139.721V228.061L140.24 228.063H145.139C145.798 228.063 146.778 228.469 146.778 229.586C146.778 230.704 145.867 231.11 145.255 231.11H143.697C143.753 231.3 143.844 231.458 143.973 231.586C144.496 232.1 145.587 232.084 146.111 232.076L146.111 232.076ZM140.759 230.07L145.25 230.07C145.296 230.068 145.431 230.051 145.543 229.989C145.64 229.936 145.738 229.846 145.738 229.586C145.738 229.377 145.668 229.264 145.486 229.183C145.321 229.109 145.141 229.103 145.139 229.103H140.759V230.07L140.759 230.07ZM155.819 230.513L159.384 228.137V233.169H158.334V230.099L155.819 231.775L153.305 230.099V233.169H152.254V228.137L155.819 230.513ZM167.56 228.539C167.971 228.946 167.968 229.534 167.962 230.426C167.962 230.492 167.962 230.561 167.961 230.632C167.959 231.161 167.958 231.543 167.902 231.865C167.855 232.14 167.746 232.536 167.346 232.803C166.84 233.14 166.083 233.148 164.426 233.164C164.167 233.167 163.928 233.169 163.708 233.169C162.395 233.169 161.735 233.099 161.313 232.68C160.874 232.244 160.876 231.601 160.88 230.628C160.884 229.542 160.886 228.887 161.437 228.48C161.911 228.129 162.601 228.12 164.112 228.1L164.413 228.096C166.296 228.069 167.075 228.058 167.56 228.539L167.56 228.539ZM166.919 230.42C166.922 229.908 166.925 229.378 166.826 229.28C166.702 229.157 166.149 229.129 165.413 229.129C165.11 229.129 164.776 229.134 164.428 229.139L164.125 229.143C163.043 229.158 162.261 229.168 162.056 229.319C161.927 229.415 161.925 229.979 161.923 230.632C161.92 231.239 161.918 231.812 162.048 231.94C162.252 232.143 163.351 232.132 164.415 232.121C165.636 232.109 166.519 232.1 166.767 231.935C166.913 231.837 166.915 231.33 166.918 230.628C166.918 230.556 166.918 230.487 166.919 230.42L166.919 230.42ZM175.538 228.066H176.588V233.099L170.509 229.924V233.169H169.459V228.137L175.538 231.312V228.066H175.538ZM178.084 228.013H185.213V229.064H182.173V233.131H181.123V229.064H178.084V228.013H178.084ZM193.399 228.539C193.809 228.946 193.806 229.534 193.801 230.426C193.8 230.492 193.8 230.561 193.799 230.632C193.797 231.161 193.796 231.543 193.741 231.865C193.693 232.14 193.584 232.536 193.184 232.803C192.678 233.14 191.921 233.148 190.264 233.164C190.005 233.167 189.766 233.169 189.546 233.169C188.233 233.169 187.573 233.099 187.151 232.68C186.712 232.244 186.714 231.601 186.718 230.628C186.722 229.542 186.724 228.887 187.275 228.48C187.75 228.129 188.439 228.12 189.95 228.1L190.251 228.096C192.134 228.069 192.913 228.058 193.398 228.539L193.399 228.539ZM192.757 230.42C192.76 229.908 192.763 229.378 192.664 229.28C192.54 229.157 191.987 229.129 191.251 229.129C190.948 229.129 190.614 229.134 190.266 229.139L189.963 229.143C188.881 229.158 188.099 229.168 187.895 229.319C187.765 229.415 187.763 229.979 187.761 230.632C187.759 231.239 187.756 231.812 187.886 231.94C188.09 232.143 189.19 232.132 190.253 232.121C191.474 232.109 192.357 232.1 192.605 231.935C192.751 231.837 192.753 231.33 192.756 230.628C192.756 230.556 192.757 230.487 192.757 230.42L192.757 230.42ZM202.427 228.019L202.445 230.569C202.453 231.133 202.225 231.681 201.804 232.111C201.358 232.567 200.489 233.114 198.885 233.126C198.869 233.126 198.853 233.126 198.838 233.126C197.624 233.126 196.61 232.777 195.978 232.141C195.544 231.704 195.309 231.148 195.316 230.573L195.297 228.027L196.347 228.019L196.366 230.576L196.366 230.582C196.362 230.878 196.486 231.162 196.724 231.401C197.162 231.843 197.926 232.082 198.877 232.076C199.847 232.068 200.62 231.82 201.054 231.377C201.281 231.144 201.4 230.869 201.395 230.582V230.578L201.377 228.027L202.427 228.019ZM203.949 228.013H211.078V229.064H208.038V233.131H206.988V229.064H203.949V228.013H203.949ZM219.264 228.539C219.674 228.946 219.671 229.534 219.666 230.426C219.665 230.492 219.665 230.561 219.665 230.632C219.663 231.161 219.661 231.543 219.606 231.865C219.558 232.14 219.449 232.536 219.049 232.803C218.543 233.14 217.786 233.148 216.129 233.164C215.87 233.167 215.631 233.169 215.411 233.169C214.098 233.169 213.438 233.099 213.016 232.68C212.577 232.244 212.579 231.601 212.583 230.628C212.587 229.542 212.59 228.887 213.14 228.48C213.615 228.129 214.304 228.12 215.815 228.1L216.116 228.096C217.999 228.069 218.778 228.058 219.263 228.539L219.264 228.539ZM218.622 230.42C218.625 229.908 218.628 229.378 218.529 229.28C218.406 229.157 217.852 229.129 217.116 229.129C216.813 229.129 216.479 229.134 216.131 229.139L215.829 229.143C214.746 229.158 213.964 229.168 213.76 229.319C213.63 229.415 213.628 229.979 213.626 230.632C213.624 231.239 213.621 231.812 213.751 231.94C213.955 232.143 215.055 232.132 216.118 232.121C217.34 232.109 218.222 232.1 218.47 231.935C218.617 231.837 218.618 231.33 218.621 230.628C218.621 230.556 218.622 230.487 218.622 230.42L218.622 230.42Z" fill="#06A89B"/>
</g>
<defs>
<linearGradient id="paint0_linear_1_2" x1="-1.52588e-05" y1="0" x2="312.5" y2="0" gradientUnits="userSpaceOnUse">
<stop stop-color="#2D388A"/>
<stop offset="1" stop-color="#00AEEF"/>
</linearGradient>
<linearGradient id="paint1_linear_1_2" x1="114" y1="93" x2="198.727" y2="93" gradientUnits="userSpaceOnUse">
<stop stop-color="#2D388A"/>
<stop offset="1" stop-color="#00AEEF"/>
</linearGradient>
<linearGradient id="paint2_linear_1_2" x1="56" y1="188" x2="256" y2="188" gradientUnits="userSpaceOnUse">
<stop stop-color="#EF4136"/>
<stop offset="1" stop-color="#FBB040"/>
</linearGradient>
<clipPath id="clip0_1_2">
<rect width="312.5" height="316.095" fill="white"/>
</clipPath>
</defs>
</svg>
