<svg width="350" height="41" viewBox="0 0 350 41" fill="none" xmlns="http://www.w3.org/2000/svg">
<path d="M23.7484 27.8063C24.3197 28.149 24.3768 28.5489 24.0912 29.1773C24.034 29.2344 24.034 29.2915 24.034 29.3487C22.2631 31.748 20.6065 34.3186 18.3786 36.318C14.951 39.4028 10.9522 39.7456 6.78201 38.2032C5.58237 37.8033 4.61123 37.0036 3.81146 36.0324C2.38332 34.49 1.4693 32.6049 0.840916 30.5483C0.383909 29.1202 0.155405 27.6349 0.0411528 26.1496C-0.130225 22.0366 0.212531 17.9806 1.4693 14.0389C2.26906 11.5254 3.41158 9.18322 5.06824 7.06956C8.72429 2.61374 14.037 2.27098 18.0358 3.75625C19.6925 4.32751 21.0635 5.35578 22.206 6.7268C22.8915 7.64082 23.3485 8.66908 23.577 9.8116C23.7484 10.8399 23.3485 11.5825 22.3203 11.9253C21.1206 12.3251 19.8639 12.3251 18.6642 11.9253C18.0929 11.7539 17.6359 11.354 17.4074 10.7827C17.1789 10.3829 17.0076 9.98298 16.7791 9.64022C16.0935 8.55483 15.2938 7.58369 13.9799 6.84105C13.123 7.41231 12.4946 8.15495 11.9233 8.95471C10.3809 11.1255 9.46693 13.5819 8.89567 16.1526C7.98166 20.0943 7.69603 24.036 8.21016 28.0348C8.43867 29.6914 8.83855 31.291 9.52406 32.8334C9.98107 33.8045 10.4952 34.7185 11.3521 35.5183C11.6948 35.404 12.0376 35.2898 12.2661 35.0041C13.2944 34.1473 14.2655 33.2332 15.1795 32.2621C16.2649 31.1196 17.3503 29.9771 18.1501 28.6632C19.1783 27.1208 22.2631 26.8923 23.7484 27.8063V27.8063ZM2.61182 30.7197C3.0117 31.6337 3.06883 30.5483 2.89745 29.9771C2.84032 29.6914 2.72607 29.4058 2.61182 29.063V29.0059H2.55469C2.49757 28.7203 2.38332 28.4918 2.38332 28.2633C2.38332 28.2633 2.21194 29.7486 2.61182 30.7197ZM5.868 9.41172C5.92512 9.18322 5.92512 8.89759 5.69662 8.89759C5.52524 8.84046 5.35387 9.01184 5.18249 9.12609C5.12536 9.24034 5.06824 9.35459 5.01111 9.41172C2.26906 15.1814 1.18367 21.2368 2.44044 27.5778V24.6643C2.38332 19.5801 3.35446 14.7244 5.52524 10.1544C5.63949 9.86873 5.75375 9.64022 5.868 9.41172V9.41172ZM48.1412 7.98357C49.5693 12.3251 50.4834 16.781 50.4262 21.4082C50.3691 26.7209 48.8267 31.6908 46.0275 36.2038C43.971 39.5171 40.8862 40.7739 37.173 40.5454C33.4027 40.374 30.7178 38.4317 29.0611 35.1184C27.8615 32.8334 27.2331 30.3198 26.8332 27.7491C26.262 24.3216 26.3762 20.8369 26.6618 17.3522C26.9475 14.2674 27.3473 11.1826 28.0329 8.15495C28.2042 7.46944 28.4327 6.78393 28.6041 6.04129C28.7755 5.47003 29.1754 5.07015 29.7466 4.84165C31.0605 4.38464 32.4887 4.38464 33.8026 4.84165C34.6023 5.12728 35.0022 5.69853 34.888 6.55542C34.7737 8.55483 34.6023 10.5542 34.431 12.5536C34.2025 15.867 33.9168 19.1803 33.974 22.4936C34.0311 25.6926 34.5452 28.7774 35.5164 31.8051C35.9162 33.0619 36.4304 34.2615 37.1159 35.3469C37.2873 35.6325 37.5729 35.861 37.9156 36.2038C38.2584 35.6897 38.6012 35.2326 38.9439 34.7185C40.4863 32.2621 41.3432 29.5201 42.0287 26.6638C42.6571 23.8075 42.7714 20.9512 42.4857 18.0377C42.143 14.6673 41.6288 11.354 40.5434 8.15495C40.3149 7.41231 40.2578 6.61255 40.0864 5.86991C39.9722 5.1844 40.2578 4.72739 40.8862 4.49889C42.5428 3.75625 44.3138 3.75625 45.9704 4.49889C46.3703 4.67027 46.7702 5.07015 46.9415 5.47003C47.3986 6.2698 47.7984 7.12668 48.1412 7.98357V7.98357ZM30.2036 8.2692C30.2608 8.09783 30.3179 7.64082 30.1465 7.58369C29.6895 7.64082 29.5753 7.92645 29.5181 8.21208C29.004 9.92585 28.3756 11.5825 28.1471 13.2963C27.4045 18.152 27.4616 23.0077 28.09 27.8634C28.1471 28.0348 28.2614 28.5489 28.3756 28.7774C28.3756 28.5489 28.4327 27.9205 28.4327 27.692C28.3756 24.2645 28.3756 20.7798 28.4327 17.2951C28.4899 14.6673 28.9469 12.0966 29.8038 9.5831C29.9751 9.06897 30.0323 8.78334 30.2036 8.2692V8.2692ZM48.4268 20.6655C48.4839 21.808 49.2837 22.5507 49.2837 21.1225C49.2837 20.7798 49.2837 20.437 49.2266 20.0943V19.2374C49.2266 19.2374 49.1695 18.7232 49.1123 18.4376C48.8838 15.867 48.4268 13.4105 47.6842 10.9541C47.6842 10.897 47.6271 10.7827 47.6271 10.7256C47.6271 10.6685 47.5699 10.6114 47.5699 10.4971C47.3414 9.8116 46.7702 8.38346 46.3703 7.8122C46.1989 7.58369 45.8562 7.69794 45.9704 8.09782C47.5128 12.1538 48.3126 16.3811 48.4268 20.6655V20.6655ZM76.9898 27.8063C77.561 28.149 77.6182 28.5489 77.3325 29.1773C77.2754 29.2344 77.2754 29.2915 77.2754 29.3487C75.5045 31.748 73.8479 34.3186 71.6199 36.318C68.1924 39.4028 64.1936 39.7456 60.0234 38.2032C58.8237 37.8033 57.8526 37.0036 57.0528 36.0324C55.6247 34.49 54.7107 32.6049 54.0823 30.5483C53.6253 29.1202 53.3968 27.6349 53.2825 26.1496C53.1111 22.0366 53.4539 17.9806 54.7107 14.0389C55.5104 11.5254 56.653 9.18322 58.3096 7.06956C61.9657 2.61374 67.2784 2.27098 71.2772 3.75625C72.9338 4.32751 74.3049 5.35578 75.4474 6.7268C76.1329 7.64082 76.5899 8.66908 76.8184 9.8116C76.9898 10.8399 76.5899 11.5825 75.5616 11.9253C74.362 12.3251 73.1052 12.3251 71.9056 11.9253C71.3343 11.7539 70.8773 11.354 70.6488 10.7827C70.4203 10.3829 70.2489 9.98298 70.0204 9.64022C69.3349 8.55483 68.5352 7.58369 67.2213 6.84105C66.3644 7.41231 65.736 8.15495 65.1647 8.95471C63.6223 11.1255 62.7083 13.5819 62.137 16.1526C61.223 20.0943 60.9374 24.036 61.4515 28.0348C61.68 29.6914 62.0799 31.291 62.7654 32.8334C63.2224 33.8045 63.7366 34.7185 64.5935 35.5183C64.9362 35.404 65.279 35.2898 65.5075 35.0041C66.5357 34.1473 67.5069 33.2332 68.4209 32.2621C69.5063 31.1196 70.5917 29.9771 71.3914 28.6632C72.4197 27.1208 75.5045 26.8923 76.9898 27.8063V27.8063ZM55.8532 30.7197C56.2531 31.6337 56.3102 30.5483 56.1388 29.9771C56.0817 29.6914 55.9674 29.4058 55.8532 29.063V29.0059H55.7961C55.7389 28.7203 55.6247 28.4918 55.6247 28.2633C55.6247 28.2633 55.4533 29.7486 55.8532 30.7197ZM59.1094 9.41172C59.1665 9.18322 59.1665 8.89759 58.938 8.89759C58.7666 8.84046 58.5952 9.01184 58.4239 9.12609C58.3667 9.24034 58.3096 9.35459 58.2525 9.41172C55.5104 15.1814 54.425 21.2368 55.6818 27.5778V24.6643C55.6247 19.5801 56.5958 14.7244 58.7666 10.1544C58.8809 9.86873 58.9951 9.64022 59.1094 9.41172V9.41172ZM87.2153 19.6373C87.044 24.036 86.8726 28.4918 86.6441 32.8905C86.5869 34.8899 86.3584 36.8893 86.2442 38.8887C86.2442 39.6885 85.8443 40.2026 85.1017 40.4311C83.8449 40.831 82.5881 40.831 81.3314 40.374C80.6458 40.1455 80.3031 39.6885 80.1888 38.9458C79.9603 36.4894 79.7318 34.033 79.7318 31.5766C79.789 27.7492 79.8461 23.9788 79.9603 20.1514C80.0175 18.0377 80.1317 15.9241 80.246 13.8675C80.4173 11.0112 80.5887 8.15495 80.8172 5.29865C80.8172 4.78452 80.9315 4.27039 80.9886 3.81338C81.1029 3.01362 81.5599 2.49948 82.3025 2.27098C83.6164 1.8711 84.9303 1.8711 86.2442 2.38523C86.9297 2.61374 87.3296 3.12787 87.3296 3.87051C87.3867 4.49889 87.4438 5.07015 87.4438 5.69854C87.3867 10.3257 87.2725 14.6102 87.2153 19.2945V19.6373V19.6373ZM81.0457 34.8328C81.1029 34.49 81.16 34.3758 81.16 34.2044C81.4456 31.4623 81.3885 28.7203 81.3885 25.9211C81.3314 21.0083 81.8455 16.0383 82.3025 11.1255C82.4168 9.46885 82.6453 7.8122 82.8166 6.09842C82.8738 5.86991 82.8166 5.58428 82.4739 5.52716C82.3596 5.64141 82.1882 5.75566 82.1882 5.86991C80.9315 15.4671 80.1888 25.0642 81.0457 34.8328V34.8328ZM114.979 2.67086C115.093 6.4983 114.407 10.2686 113.95 14.096C113.493 17.8664 112.922 21.5795 112.294 25.2927C111.779 28.4347 111.151 31.5766 110.523 34.6614C110.466 35.1755 110.294 35.6325 110.18 36.1467C109.666 37.8604 108.923 38.4317 107.152 38.5459C106.695 38.6031 106.238 38.6031 105.838 38.5459C104.524 38.4317 103.61 37.8033 103.153 36.4894C102.011 33.3475 100.868 30.2056 100.012 26.9494C99.6117 25.4641 99.1547 24.036 98.6976 22.5507H98.3549V23.6361C98.3549 26.1496 98.412 28.606 98.3549 31.0625C98.3549 32.8905 98.1835 34.6614 98.1264 36.4894C98.0693 37.2321 97.7265 37.6891 97.041 37.9747C95.7271 38.4317 94.4703 38.4317 93.1564 37.9176C92.4709 37.6891 92.1282 37.2321 92.071 36.4894C91.9568 34.2615 91.6712 32.0907 91.5569 29.9199C91.157 24.493 90.8143 19.066 90.9285 13.639C90.9856 10.44 91.2713 7.18381 91.4427 3.92763C91.4998 3.75625 91.4998 3.52775 91.5569 3.29925C91.6712 2.55661 92.071 2.0996 92.7565 1.8711C94.0133 1.52834 95.2701 1.52834 96.4697 1.92822C96.9267 2.0996 97.2695 2.32811 97.6694 2.49948C98.1835 2.72799 98.412 3.12787 98.5834 3.58488L100.983 11.1255C102.411 15.7527 103.839 20.3228 105.267 24.95C105.324 25.1785 105.439 25.407 105.553 25.6355C105.953 25.6926 105.896 25.3499 105.896 25.1785C106.638 19.4659 107.381 13.7533 108.066 8.0407C108.181 7.12668 108.238 6.21267 108.295 5.29865C108.352 4.27039 108.638 3.35637 109.037 2.44236C109.323 1.92822 109.666 1.52834 110.237 1.35696C111.551 0.899957 112.922 0.842831 114.236 1.41409C114.921 1.64259 114.979 1.92822 114.979 2.67086V2.67086ZM93.3849 10.5542C93.3849 9.24034 93.6706 7.86932 93.3849 6.44117C93.1564 6.61255 92.9851 6.66968 92.9279 6.78393C92.8137 7.06956 92.8137 7.29806 92.7565 7.58369C92.5852 11.5254 92.3567 15.4671 92.2424 19.4088C92.1282 23.1791 92.4709 26.9494 93.0422 30.7197V26.6638C93.0422 25.3499 92.9851 24.036 92.9851 22.7221C92.9851 21.351 93.0422 19.98 93.0422 18.609C93.0993 17.238 93.0993 15.867 93.1564 14.4959C93.2136 13.182 93.3849 11.8681 93.3849 10.5542ZM103.153 23.4076C103.496 24.4358 103.782 23.6932 103.782 23.6361C103.553 22.8363 103.268 21.8652 102.982 20.8369V20.7798C102.925 20.6655 102.868 20.6084 102.868 20.4942C101.954 17.4094 100.811 13.639 100.012 11.2969C99.9544 11.1255 99.8402 11.2969 99.8402 11.354C100.012 14.4388 102.182 20.2085 103.153 23.4076V23.4076ZM110.123 7.12668C110.18 6.84105 110.237 6.4983 109.78 6.38405C109.666 6.44117 109.552 6.4983 109.552 6.55542C109.037 9.52597 108.466 12.4965 108.066 15.4671C107.838 17.1808 107.552 18.8946 107.666 20.7227C107.781 20.5513 107.838 20.4942 107.895 20.3799C108.409 17.238 108.98 14.0389 109.494 10.897C109.723 9.64023 109.951 8.38345 110.123 7.12668V7.12668ZM136.458 15.3528C136.172 19.5801 135.83 23.8075 135.658 28.0348C135.544 31.291 135.658 34.5471 135.658 37.8604C135.658 37.9747 135.715 38.1461 135.715 38.3174C135.715 39.5742 135.372 39.9741 134.173 40.3169C133.087 40.5454 132.059 40.5454 130.974 40.3169C129.774 40.0312 129.26 39.5742 129.146 38.3174C128.917 36.2609 128.86 34.2044 128.689 32.1478C128.632 31.5766 128.632 31.0053 128.575 30.2627C126.118 30.0342 123.833 30.2056 121.491 30.6626C121.148 31.3481 121.205 32.0336 121.091 32.7191C121.034 33.2904 121.034 33.8616 120.977 34.4329C120.92 35.1755 120.52 35.5754 119.834 35.8039C118.749 36.1467 117.663 36.1467 116.578 35.8039C115.893 35.5754 115.436 35.0613 115.378 34.2615C115.321 33.8045 115.321 33.3475 115.321 32.8334C115.093 25.1214 116.635 17.7521 119.549 10.6114C120.406 8.44058 121.491 6.38405 122.805 4.44176C123.319 3.69913 123.89 3.01362 124.461 2.32811C126.861 -0.528191 131.031 -0.356814 133.202 0.728578C134.23 1.24271 134.915 2.0996 135.372 3.12787C135.887 4.27039 136.115 5.47003 136.287 6.66968C136.686 9.52597 136.629 12.4394 136.458 15.3528V15.3528ZM119.663 15.2957C120.92 11.0684 122.805 7.12668 125.433 3.52775C125.661 3.29925 125.832 2.95649 126.118 2.44236C126.461 1.64259 125.49 2.44236 125.375 2.55661C125.033 2.89936 124.747 3.24212 124.461 3.642C122.119 6.89818 120.463 10.44 119.206 14.2674C118.52 16.2668 118.063 18.3234 117.549 20.3799C117.206 21.808 116.921 23.2362 116.749 24.7215C116.521 26.1496 116.521 27.5206 116.635 28.9488C116.807 28.7203 116.864 28.4347 116.864 28.149C117.149 26.4353 117.264 24.7786 117.663 23.1219C118.235 20.4942 118.92 17.8664 119.663 15.2957V15.2957ZM128.175 27.1208C128.403 25.864 128.689 8.44058 128.517 6.78393C128.175 7.12668 128.06 7.24094 127.946 7.41231C127.603 8.0407 127.261 8.61196 126.975 9.24034C124.347 14.7816 122.633 20.6655 121.777 26.7209C121.719 26.9494 121.834 27.1208 121.834 27.4064C124.062 27.2921 126.118 27.1779 128.175 27.1208V27.1208ZM134.63 11.9824C134.744 13.4105 135.658 13.8104 135.715 12.4965C136.058 3.81338 133.83 2.32811 133.83 2.32811C134.573 3.642 134.573 10.5542 134.63 11.9824V11.9824ZM176.218 13.2392C176.903 15.8098 176.903 18.4947 176.503 21.1225C176.103 23.9788 175.475 26.8351 174.561 29.6343C173.932 31.4052 173.19 33.119 172.219 34.7185C169.705 38.7173 165.021 40.2597 160.565 38.6031C158.908 37.9176 157.709 36.775 156.852 35.2326C155.824 33.4617 155.252 31.6337 154.795 29.6343C154.338 27.4064 154.053 25.1214 154.11 22.7792C154.11 19.523 154.51 16.2668 155.709 13.2392C156.166 12.0966 156.68 11.0112 157.309 9.98298C158.451 8.15495 159.937 6.7268 161.936 5.86991C162.165 5.81279 162.336 5.75566 162.564 5.64141C164.964 4.21326 167.363 4.38464 169.762 5.75566C170.391 6.15554 171.076 6.61255 171.705 7.01243C174.161 8.38345 175.589 10.5542 176.218 13.2392V13.2392ZM160.794 7.92645C161.193 7.69794 160.908 7.69794 160.565 7.92645C156.852 10.3257 155.367 14.4959 155.024 18.7232C154.567 23.3504 154.567 28.5489 156.909 32.7191C157.08 33.0047 157.709 32.7191 157.48 32.3763C155.367 28.606 155.367 24.0931 155.595 19.8658C155.824 15.5242 156.909 10.44 160.794 7.92645V7.92645ZM168.677 22.3222C168.963 20.4942 169.077 18.609 168.963 16.781C168.848 14.9529 168.506 13.1249 167.649 11.5254C167.077 10.4971 166.392 9.5831 165.249 8.95471C164.907 9.41172 164.621 9.75448 164.335 10.1544C163.193 11.811 162.507 13.6962 162.05 15.6384C161.079 19.5801 160.965 23.579 161.479 27.5778C161.708 29.5772 162.222 31.5766 163.021 33.4617C163.307 34.0901 163.536 34.7756 164.221 35.2898C164.507 34.947 164.792 34.7185 164.964 34.3758C165.535 33.1761 166.221 31.9193 166.678 30.6626C167.706 27.9776 168.22 25.1785 168.677 22.3222V22.3222ZM174.732 25.0071C175.475 22.1508 175.703 19.2945 175.418 16.3811C175.189 14.3246 174.789 11.6396 173.533 9.92586C173.361 9.69735 173.018 9.29747 173.418 9.8116C174.104 10.8399 174.161 12.4394 174.39 13.9247C174.447 14.4388 174.504 15.0101 174.561 15.5813C174.618 16.2097 174.675 16.8381 174.675 17.4094C174.789 19.7515 174.504 22.1508 173.933 24.4358C173.647 25.4641 174.561 25.6355 174.732 25.0071V25.0071ZM199.296 1.29984C199.925 1.64259 199.925 2.32811 199.354 2.67086C199.068 2.84224 198.725 3.01362 198.382 3.07074C197.754 3.18499 197.126 3.24212 196.497 3.29925C193.412 3.4135 190.271 3.58488 187.186 3.75625C186.9 3.75625 186.614 3.81338 186.1 3.92763C186.272 6.89818 186.157 9.75448 186.329 12.6108C187.186 12.725 187.871 12.6108 188.614 12.5536C189.414 12.4965 190.271 12.4394 191.07 12.4394C191.87 12.4394 192.613 12.6108 193.298 13.0678C193.927 13.4677 193.927 14.096 193.298 14.4388C192.841 14.6673 192.327 14.8387 191.87 14.9529L187.243 15.4671C186.957 15.5242 186.729 15.5813 186.386 15.5813C186.386 16.0955 186.329 16.4953 186.329 16.8952C186.386 23.7503 186.443 30.6626 186.557 37.5748V37.6891C186.557 39.2315 186.272 39.6313 184.786 39.9741C183.758 40.2026 182.73 40.1455 181.759 39.8598C180.902 39.5742 180.445 39.0601 180.388 38.1461C180.045 33.9187 179.474 29.6914 179.588 25.4641C179.645 20.1514 179.759 14.8958 179.874 9.5831C179.931 7.92645 180.102 6.26979 180.159 4.61314C180.216 4.04188 180.159 3.47062 180.102 2.95649C179.988 2.04248 180.673 0.899956 181.53 0.614327C182.501 0.271571 183.587 0.214445 184.558 0.557201C185.301 0.84283 186.043 0.899957 186.843 0.899957C189.756 0.785705 192.67 0.671453 195.526 0.614327C196.497 0.557201 197.411 0.557202 198.325 0.842831C198.668 0.957083 199.011 1.12846 199.296 1.29984V1.29984ZM181.987 5.1844C182.044 4.89877 182.159 4.55602 181.644 4.32751C181.587 4.44176 181.416 4.61314 181.359 4.78452C181.245 5.47003 181.13 6.21267 181.13 6.89818C180.959 9.64022 180.845 12.3251 180.673 15.0101C180.388 19.523 180.273 24.0931 180.502 28.6632C180.616 30.3198 180.73 31.9193 180.845 33.576H181.073V32.662V24.5501C181.073 22.6078 181.13 20.6084 181.187 18.6661C181.359 15.4099 181.53 12.1538 181.759 8.89759C181.816 7.64082 181.93 6.38405 181.987 5.1844V5.1844ZM197.983 1.69972C198.497 1.75685 198.611 1.35696 198.325 1.29984C196.383 0.957083 194.212 1.29984 192.27 1.35696H192.213C192.156 1.35696 192.099 1.41409 192.041 1.41409H191.984H191.927H191.984H192.041C192.099 1.41409 192.156 1.35696 192.213 1.35696H192.27C194.041 1.29984 196.154 1.52834 197.983 1.69972ZM231.858 17.5807C232.315 16.7238 232.544 16.1526 232.829 15.6384C234.086 12.8964 235.4 10.0972 236.714 7.35519C237.457 5.86991 238.313 4.44176 239.113 2.95649C239.456 2.32811 239.97 1.98535 240.598 1.81397C241.741 1.52834 242.826 1.52834 243.912 1.8711C244.769 2.0996 245.34 2.61373 245.511 3.52775C245.74 4.55602 246.025 5.58428 246.083 6.66968C246.311 9.75448 246.597 12.8964 246.654 15.9812C246.768 20.9512 246.768 25.864 246.711 30.834C246.654 33.3475 246.311 35.861 246.14 38.3746C246.14 39.0601 245.797 39.46 245.169 39.6885C243.74 40.2026 242.312 40.2026 240.941 39.6885C240.199 39.4028 239.742 38.8887 239.742 38.0889C239.684 36.8322 239.627 35.5183 239.627 34.2615C239.627 27.9776 239.627 21.6938 239.684 15.4099C239.684 15.0101 239.742 14.5531 239.456 14.0389C239.227 14.3246 239.113 14.5531 238.999 14.7816C237.571 17.8092 236.2 20.894 235.171 24.1502C234.6 25.9782 233.972 26.4353 232.03 26.4924C231.573 26.4924 231.058 26.4924 230.601 26.3781C229.63 26.2067 228.945 25.7497 228.488 24.8357C227.174 22.3222 225.917 19.7515 224.832 17.1237C224.66 16.6667 224.489 16.2668 224.26 15.8098C223.689 15.9241 223.861 16.324 223.861 16.6096C223.632 21.0654 223.461 25.5212 223.232 29.9771C223.118 32.2621 222.947 34.6043 222.889 36.8893C222.832 37.6891 222.49 38.2032 221.747 38.4317C220.49 38.8316 219.233 38.8316 217.919 38.4317C217.234 38.2032 216.777 37.7462 216.663 36.9464C216.548 35.2326 216.263 33.5189 216.206 31.8051C216.034 27.8063 215.806 23.7503 215.92 19.7515C216.034 14.8387 216.491 9.98298 216.834 5.12728C216.891 4.15614 217.12 3.18499 217.234 2.21385C217.348 1.29984 217.862 0.785704 218.719 0.557201C220.433 0.157319 222.147 0.0430681 223.689 1.12846C223.803 1.24271 223.918 1.35696 224.089 1.41409C225.06 1.75685 225.631 2.55661 225.974 3.47062C227.46 6.84105 228.888 10.1544 230.259 13.5248C230.773 14.7816 231.23 16.0383 231.858 17.5807V17.5807ZM235.686 12.3251C235.8 12.0395 235.457 12.8393 235.971 12.2109C237.057 10.2686 238.428 8.21208 239.513 6.32692C239.742 5.98416 239.684 5.69854 239.456 5.64141C239.056 5.58428 238.77 6.32692 238.599 6.7268C237.742 8.2692 236.942 9.86873 236.143 11.4111C235.971 11.7539 235.857 11.9253 235.686 12.3251V12.3251ZM218.662 4.55602C218.034 4.44176 218.034 4.89877 218.034 5.1844C217.805 7.24094 217.577 9.24034 217.462 11.2969C217.177 18.3805 217.12 25.407 217.919 32.4335C217.977 28.3204 217.977 24.2073 218.034 20.0943C218.091 16.9523 218.205 13.8675 218.319 10.7256C218.376 9.06897 218.605 7.41231 218.719 5.75566C218.719 5.29865 218.948 4.55602 218.662 4.55602ZM244.769 32.8905C244.712 33.9759 245.397 34.6614 245.454 31.9193C245.568 28.9488 245.683 25.9211 245.683 22.9506C245.626 20.437 245.454 17.9235 245.283 15.4099C245.226 14.8387 245.111 14.2674 244.997 13.6962C244.997 13.6962 244.94 13.6962 244.883 13.7533C244.883 20.0943 244.826 26.4353 244.769 32.8905V32.8905ZM245.054 35.5183C245.34 35.0613 245.111 34.3758 245.111 34.2615C245.054 34.3186 244.712 34.2615 244.712 35.1184C244.712 35.1755 244.769 35.6325 244.883 35.5754C244.94 35.5754 244.997 35.5183 245.054 35.5183ZM271.961 13.2392C272.646 15.8098 272.646 18.4947 272.246 21.1225C271.846 23.9788 271.218 26.8351 270.304 29.6343C269.676 31.4052 268.933 33.119 267.962 34.7185C265.448 38.7173 260.764 40.2597 256.308 38.6031C254.651 37.9176 253.452 36.775 252.595 35.2326C251.567 33.4617 250.995 31.6337 250.538 29.6343C250.081 27.4064 249.796 25.1214 249.853 22.7792C249.853 19.523 250.253 16.2668 251.452 13.2392C251.909 12.0966 252.424 11.0112 253.052 9.98298C254.194 8.15495 255.68 6.7268 257.679 5.86991C257.908 5.81279 258.079 5.75566 258.308 5.64141C260.707 4.21326 263.106 4.38464 265.505 5.75566C266.134 6.15554 266.819 6.61255 267.448 7.01243C269.904 8.38345 271.332 10.5542 271.961 13.2392V13.2392ZM256.537 7.92645C256.936 7.69794 256.651 7.69794 256.308 7.92645C252.595 10.3257 251.11 14.4959 250.767 18.7232C250.31 23.3504 250.31 28.5489 252.652 32.7191C252.823 33.0047 253.452 32.7191 253.223 32.3763C251.11 28.606 251.11 24.0931 251.338 19.8658C251.567 15.5242 252.652 10.44 256.537 7.92645V7.92645ZM264.42 22.3222C264.706 20.4942 264.82 18.609 264.706 16.781C264.591 14.9529 264.249 13.1249 263.392 11.5254C262.82 10.4971 262.135 9.5831 260.992 8.95471C260.65 9.41172 260.364 9.75448 260.078 10.1544C258.936 11.811 258.25 13.6962 257.793 15.6384C256.822 19.5801 256.708 23.579 257.222 27.5778C257.451 29.5772 257.965 31.5766 258.765 33.4617C259.05 34.0901 259.279 34.7756 259.964 35.2898C260.25 34.947 260.535 34.7185 260.707 34.3758C261.278 33.1761 261.964 31.9193 262.421 30.6626C263.449 27.9776 263.963 25.1785 264.42 22.3222V22.3222ZM270.475 25.0071C271.218 22.1508 271.446 19.2945 271.161 16.3811C270.932 14.3246 270.532 11.6396 269.276 9.92586C269.104 9.69735 268.762 9.29747 269.161 9.8116C269.847 10.8399 269.904 12.4394 270.133 13.9247C270.19 14.4388 270.247 15.0101 270.304 15.5813C270.361 16.2097 270.418 16.8381 270.418 17.4094C270.532 19.7515 270.247 22.1508 269.676 24.4358C269.39 25.4641 270.304 25.6355 270.475 25.0071V25.0071ZM299.438 2.67086C299.552 6.4983 298.867 10.2686 298.41 14.096C297.953 17.8664 297.382 21.5795 296.753 25.2927C296.239 28.4347 295.611 31.5766 294.982 34.6614C294.925 35.1755 294.754 35.6325 294.64 36.1467C294.125 37.8604 293.383 38.4317 291.612 38.5459C291.155 38.6031 290.698 38.6031 290.298 38.5459C288.984 38.4317 288.07 37.8033 287.613 36.4894C286.471 33.3475 285.328 30.2056 284.471 26.9494C284.071 25.4641 283.614 24.036 283.157 22.5507H282.815V23.6361C282.815 26.1496 282.872 28.606 282.815 31.0625C282.815 32.8905 282.643 34.6614 282.586 36.4894C282.529 37.2321 282.186 37.6891 281.501 37.9747C280.187 38.4317 278.93 38.4317 277.616 37.9176C276.931 37.6891 276.588 37.2321 276.531 36.4894C276.416 34.2615 276.131 32.0907 276.017 29.9199C275.617 24.493 275.274 19.066 275.388 13.639C275.445 10.44 275.731 7.18381 275.902 3.92763C275.959 3.75625 275.959 3.52775 276.017 3.29925C276.131 2.55661 276.531 2.0996 277.216 1.8711C278.473 1.52834 279.73 1.52834 280.929 1.92822C281.386 2.0996 281.729 2.32811 282.129 2.49948C282.643 2.72799 282.872 3.12787 283.043 3.58488L285.442 11.1255C286.87 15.7527 288.299 20.3228 289.727 24.95C289.784 25.1785 289.898 25.407 290.012 25.6355C290.412 25.6926 290.355 25.3499 290.355 25.1785C291.098 19.4659 291.84 13.7533 292.526 8.0407C292.64 7.12668 292.697 6.21267 292.754 5.29865C292.812 4.27039 293.097 3.35637 293.497 2.44236C293.783 1.92822 294.125 1.52834 294.697 1.35696C296.011 0.899957 297.382 0.842831 298.696 1.41409C299.381 1.64259 299.438 1.92822 299.438 2.67086V2.67086ZM277.845 10.5542C277.845 9.24034 278.13 7.86932 277.845 6.44117C277.616 6.61255 277.445 6.66968 277.388 6.78393C277.273 7.06956 277.273 7.29806 277.216 7.58369C277.045 11.5254 276.816 15.4671 276.702 19.4088C276.588 23.1791 276.931 26.9494 277.502 30.7197V26.6638C277.502 25.3499 277.445 24.036 277.445 22.7221C277.445 21.351 277.502 19.98 277.502 18.609C277.559 17.238 277.559 15.867 277.616 14.4959C277.673 13.182 277.845 11.8681 277.845 10.5542ZM287.613 23.4076C287.956 24.4358 288.241 23.6932 288.241 23.6361C288.013 22.8363 287.727 21.8652 287.442 20.8369V20.7798C287.385 20.6655 287.327 20.6084 287.327 20.4942C286.413 17.4094 285.271 13.639 284.471 11.2969C284.414 11.1255 284.3 11.2969 284.3 11.354C284.471 14.4388 286.642 20.2085 287.613 23.4076V23.4076ZM294.582 7.12668C294.64 6.84105 294.697 6.4983 294.24 6.38405C294.125 6.44117 294.011 6.4983 294.011 6.55542C293.497 9.52597 292.926 12.4965 292.526 15.4671C292.297 17.1808 292.012 18.8946 292.126 20.7227C292.24 20.5513 292.297 20.4942 292.355 20.3799C292.869 17.238 293.44 14.0389 293.954 10.897C294.183 9.64023 294.411 8.38345 294.582 7.12668V7.12668ZM325.43 10.0972C327.487 17.0666 326.23 23.4647 321.774 29.2344C319.09 32.7191 315.719 35.5183 311.949 37.7462C311.263 38.2032 310.521 38.6602 309.835 39.1172C308.236 40.0312 306.579 40.2597 304.808 39.7456C304.465 39.6885 304.123 39.5171 303.78 39.3457C303.037 38.8887 302.523 38.2603 302.523 37.3463C302.466 37.0607 302.466 36.775 302.409 36.5465C302.123 29.9771 302.123 23.4076 302.58 16.8381C302.866 12.6108 303.266 8.38345 303.665 3.92763C303.665 3.87051 303.608 3.81338 303.551 3.69913C302.809 2.84224 302.866 2.67086 303.78 2.04247C305.322 1.01421 306.979 0.728579 308.75 1.01421C309.435 1.12846 310.121 1.07133 310.806 1.07133C312.977 1.07133 315.091 1.29984 317.204 1.92822C321.317 3.18499 324.174 5.81279 325.43 10.0972V10.0972ZM305.779 9.06897C305.893 8.09782 305.951 7.06956 306.008 6.09842C306.008 5.86991 305.836 4.38464 305.436 5.29865C305.265 5.75566 305.322 5.98416 305.265 6.32692C305.094 7.69794 304.979 9.06897 304.865 10.3829C304.694 12.2109 304.637 13.9818 304.465 15.7527C304.065 20.894 303.894 26.0354 304.065 31.1767C304.065 31.4052 303.951 31.6908 304.351 31.9193C304.408 31.3481 304.465 30.8339 304.465 30.3198C304.637 26.8923 304.751 23.4076 304.922 19.9229C305.037 17.7521 305.151 15.6384 305.322 13.4677C305.436 11.9824 305.608 10.5542 305.779 9.06897V9.06897ZM319.261 17.0666C319.547 13.8104 318.861 10.7827 317.433 7.92645C316.462 5.98417 314.862 4.72739 312.749 4.21326C312.177 4.09901 311.606 3.92763 311.035 4.21326C310.521 13.7533 310.235 23.2933 309.892 32.7762C310.349 32.9476 310.578 32.6049 310.806 32.4335C312.406 31.1196 313.891 29.5772 315.205 27.9777C316.633 26.2067 317.604 24.2645 318.29 22.1508C318.804 20.4942 319.089 18.7804 319.261 17.0666V17.0666ZM324.688 18.2091C325.202 13.8675 324.231 8.32633 321.375 5.92704C321.146 5.69854 320.975 5.58428 321.032 5.64141C321.317 6.09842 321.546 6.55542 321.774 7.01243C321.717 6.95531 321.717 6.95531 321.66 6.95531L321.889 7.18381C323.488 10.44 324.002 13.8675 323.774 17.5807C323.717 19.0089 324.688 18.3805 324.688 18.2091V18.2091ZM337.37 3.47062C337.313 3.75625 337.256 3.92763 337.256 4.15614C337.256 11.4683 337.256 18.7233 337.313 26.0354C337.313 26.1496 337.427 26.321 337.484 26.5495C338.398 26.4924 339.312 26.321 340.226 26.2067C341.14 26.0925 342.111 26.0354 343.082 26.0354C343.539 26.0354 344.054 26.2639 344.453 26.4924C345.025 26.778 345.025 27.4064 344.453 27.7491C343.882 28.0348 343.254 28.2062 342.625 28.3204C341.426 28.606 340.169 28.7774 338.969 29.0059C338.455 29.1202 337.998 29.2344 337.484 29.4058C337.427 31.4623 337.541 33.5189 337.884 35.5183C337.941 35.7468 338.055 35.9753 338.112 36.1467C338.341 36.8322 338.798 37.2321 339.541 37.2892C340.34 37.2892 341.14 37.3463 341.94 37.2892C343.425 37.1749 344.853 37.0607 346.281 36.9464C346.967 36.8893 347.595 36.9464 348.224 37.0036C348.509 37.0036 348.795 37.1178 349.023 37.1749C349.652 37.3463 350.052 37.8033 349.995 38.1461C349.938 38.6031 349.538 38.8316 349.138 39.003C348.681 39.1172 348.167 39.2886 347.71 39.3457C345.482 39.5171 343.311 39.7456 341.083 39.917C339.541 40.0312 337.941 39.917 336.399 39.6313C335.713 39.5171 335.028 39.2886 334.399 39.0601C333.257 38.5459 332.4 37.6891 332 36.5465C331.714 35.6897 331.429 34.7756 331.314 33.8616C331.086 31.0625 330.857 28.2633 330.686 25.4641C330.4 21.1797 330.515 16.8381 330.629 12.4965C330.686 10.2115 330.8 7.86932 330.915 5.52716C330.915 4.9559 330.972 4.38464 330.972 3.75625C330.515 3.47062 330.115 3.24212 329.715 2.95649C329.372 2.67086 329.315 2.0996 329.772 1.8711C330.172 1.58547 330.686 1.29984 331.2 1.18559C332.343 0.899957 333.542 0.671453 334.685 0.557201C338.284 0.271571 341.94 0.15732 345.539 0.785706C346.167 0.899957 346.796 1.12846 347.31 1.41409C347.995 1.75685 347.938 2.49948 347.253 2.78511C346.738 3.07074 346.053 3.29925 345.425 3.35637C344.568 3.47062 343.711 3.35637 342.854 3.35637H338.341C337.998 3.35637 337.713 3.4135 337.37 3.47062V3.47062ZM332.057 4.67027C331.543 5.75566 331.486 6.61255 331.314 13.8104C331.257 16.8381 331.257 19.8658 331.314 22.8934C331.429 25.9211 331.6 28.9488 332.171 31.9193C332.228 31.0625 332.228 30.2056 332.228 29.3487C332.171 25.2927 331.943 21.2368 332 17.238C332.057 13.4105 332.286 9.5831 332.457 5.75566C332.457 5.47003 332.457 5.1844 332.4 4.9559C332.4 4.84165 332.171 4.78452 332.057 4.67027V4.67027Z" fill="url(#paint0_linear_26_86)"/>
<defs>
<linearGradient id="paint0_linear_26_86" x1="0" y1="0" x2="350" y2="0" gradientUnits="userSpaceOnUse">
<stop stop-color="#EF4136"/>
<stop offset="1" stop-color="#FBB040"/>
</linearGradient>
</defs>
</svg>
