<svg width="357" height="300" viewBox="0 0 357 300" fill="none" xmlns="http://www.w3.org/2000/svg">
<g clip-path="url(#clip0_6_75)">
<path d="M201.658 52.5659C195.346 59.5776 185.847 63.8519 175.131 63.8519C164.429 63.8519 154.939 59.5881 148.625 52.5904C144.671 55.1841 140.407 56.3127 134.759 56.3127C133.858 56.3127 132.968 56.2636 132.088 56.1777L136.336 80.143C136.476 80.9351 136.546 81.7413 136.546 82.5492V82.8243H213.714V82.5492C213.714 81.7413 213.784 80.9369 213.924 80.143L218.172 56.1777C217.292 56.2636 216.402 56.3127 215.5 56.3127C210.14 56.3144 205.682 55.107 201.658 52.5659Z" fill="url(#paint0_linear_6_75)"/>
<path d="M136.548 88.0835V109.823C136.548 116.723 141.601 122.317 147.834 122.317H174.749H175.517H202.431C208.665 122.317 213.717 116.723 213.717 109.823V88.0835H136.548Z" fill="url(#paint1_linear_6_75)"/>
<path d="M215.503 7.5392C210.699 7.5392 206.153 9.06912 202.344 11.966C202.286 12.0168 202.226 12.0676 202.161 12.1149C201.005 12.9894 199.364 12.7669 198.488 11.612C192.894 4.23226 184.379 0 175.129 0C165.887 0 157.373 4.22875 151.779 11.6032C150.955 12.6828 149.445 12.9632 148.297 12.2446C148.179 12.1728 148.069 12.0922 147.967 12.0028C144.147 9.08139 139.583 7.53745 134.759 7.53745C122.76 7.53745 113 17.2971 113 29.2963C113 41.2956 122.76 51.0552 134.759 51.0552C139.194 51.0552 142.424 50.2543 145.423 48.3809C143.39 45.1739 141.928 41.5743 141.175 37.6715C140.9 36.2485 141.834 34.871 143.258 34.5941C144.667 34.3225 146.062 35.2495 146.338 36.6761C148.83 49.5796 160.669 58.5944 175.131 58.5944C189.598 58.5944 201.438 49.5761 203.926 36.6638C204.199 35.239 205.572 34.3049 207.005 34.5818C208.43 34.8552 209.364 36.2344 209.087 37.661C208.337 41.5567 206.881 45.1528 204.855 48.3564C207.936 50.2 211.309 51.057 215.503 51.057C227.502 51.057 237.262 41.2974 237.262 29.2981C237.262 17.2988 227.501 7.5392 215.503 7.5392Z" fill="url(#paint2_linear_6_75)"/>
<path d="M29.7484 197.806C30.3197 198.149 30.3768 198.549 30.0912 199.177C30.034 199.234 30.034 199.292 30.034 199.349C28.2631 201.748 26.6065 204.319 24.3786 206.318C20.951 209.403 16.9522 209.746 12.782 208.203C11.5824 207.803 10.6112 207.004 9.81146 206.032C8.38332 204.49 7.4693 202.605 6.84092 200.548C6.38391 199.12 6.1554 197.635 6.04115 196.15C5.86978 192.037 6.21253 187.981 7.4693 184.039C8.26906 181.525 9.41158 179.183 11.0682 177.07C14.7243 172.614 20.037 172.271 24.0358 173.756C25.6925 174.328 27.0635 175.356 28.206 176.727C28.8915 177.641 29.3485 178.669 29.577 179.812C29.7484 180.84 29.3485 181.583 28.3203 181.925C27.1206 182.325 25.8639 182.325 24.6642 181.925C24.0929 181.754 23.6359 181.354 23.4074 180.783C23.1789 180.383 23.0076 179.983 22.7791 179.64C22.0935 178.555 21.2938 177.584 19.9799 176.841C19.123 177.412 18.4946 178.155 17.9233 178.955C16.3809 181.125 15.4669 183.582 14.8957 186.153C13.9817 190.094 13.696 194.036 14.2102 198.035C14.4387 199.691 14.8385 201.291 15.5241 202.833C15.9811 203.804 16.4952 204.719 17.3521 205.518C17.6948 205.404 18.0376 205.29 18.2661 205.004C19.2944 204.147 20.2655 203.233 21.1795 202.262C22.2649 201.12 23.3503 199.977 24.1501 198.663C25.1783 197.121 28.2631 196.892 29.7484 197.806V197.806ZM8.61182 200.72C9.0117 201.634 9.06883 200.548 8.89745 199.977C8.84032 199.691 8.72607 199.406 8.61182 199.063V199.006H8.55469C8.49757 198.72 8.38332 198.492 8.38332 198.263C8.38332 198.263 8.21194 199.749 8.61182 200.72ZM11.868 179.412C11.9251 179.183 11.9251 178.898 11.6966 178.898C11.5252 178.84 11.3539 179.012 11.1825 179.126C11.1254 179.24 11.0682 179.355 11.0111 179.412C8.26906 185.181 7.18367 191.237 8.44044 197.578V194.664C8.38332 189.58 9.35446 184.724 11.5252 180.154C11.6395 179.869 11.7537 179.64 11.868 179.412V179.412ZM54.1412 177.984C55.5693 182.325 56.4834 186.781 56.4262 191.408C56.3691 196.721 54.8267 201.691 52.0275 206.204C49.971 209.517 46.8862 210.774 43.173 210.545C39.4027 210.374 36.7178 208.432 35.0611 205.118C33.8615 202.833 33.2331 200.32 32.8332 197.749C32.262 194.322 32.3762 190.837 32.6618 187.352C32.9475 184.267 33.3473 181.183 34.0329 178.155C34.2042 177.469 34.4327 176.784 34.6041 176.041C34.7755 175.47 35.1754 175.07 35.7466 174.842C37.0605 174.385 38.4887 174.385 39.8026 174.842C40.6023 175.127 41.0022 175.699 40.888 176.555C40.7737 178.555 40.6023 180.554 40.431 182.554C40.2025 185.867 39.9168 189.18 39.974 192.494C40.0311 195.693 40.5452 198.777 41.5164 201.805C41.9162 203.062 42.4304 204.262 43.1159 205.347C43.2873 205.633 43.5729 205.861 43.9156 206.204C44.2584 205.69 44.6012 205.233 44.9439 204.719C46.4863 202.262 47.3432 199.52 48.0287 196.664C48.6571 193.807 48.7714 190.951 48.4857 188.038C48.143 184.667 47.6288 181.354 46.5434 178.155C46.3149 177.412 46.2578 176.613 46.0864 175.87C45.9722 175.184 46.2578 174.727 46.8862 174.499C48.5428 173.756 50.3138 173.756 51.9704 174.499C52.3703 174.67 52.7702 175.07 52.9415 175.47C53.3986 176.27 53.7984 177.127 54.1412 177.984V177.984ZM36.2036 178.269C36.2608 178.098 36.3179 177.641 36.1465 177.584C35.6895 177.641 35.5753 177.926 35.5181 178.212C35.004 179.926 34.3756 181.583 34.1471 183.296C33.4045 188.152 33.4616 193.008 34.09 197.863C34.1471 198.035 34.2614 198.549 34.3756 198.777C34.3756 198.549 34.4327 197.921 34.4327 197.692C34.3756 194.264 34.3756 190.78 34.4327 187.295C34.4899 184.667 34.9469 182.097 35.8038 179.583C35.9751 179.069 36.0323 178.783 36.2036 178.269V178.269ZM54.4268 190.666C54.4839 191.808 55.2837 192.551 55.2837 191.123C55.2837 190.78 55.2837 190.437 55.2266 190.094V189.237C55.2266 189.237 55.1695 188.723 55.1123 188.438C54.8838 185.867 54.4268 183.411 53.6842 180.954C53.6842 180.897 53.6271 180.783 53.6271 180.726C53.6271 180.668 53.5699 180.611 53.5699 180.497C53.3414 179.812 52.7702 178.383 52.3703 177.812C52.1989 177.584 51.8562 177.698 51.9704 178.098C53.5128 182.154 54.3126 186.381 54.4268 190.666V190.666ZM82.9898 197.806C83.561 198.149 83.6182 198.549 83.3325 199.177C83.2754 199.234 83.2754 199.292 83.2754 199.349C81.5045 201.748 79.8479 204.319 77.6199 206.318C74.1924 209.403 70.1936 209.746 66.0234 208.203C64.8237 207.803 63.8526 207.004 63.0528 206.032C61.6247 204.49 60.7107 202.605 60.0823 200.548C59.6253 199.12 59.3968 197.635 59.2825 196.15C59.1111 192.037 59.4539 187.981 60.7107 184.039C61.5104 181.525 62.653 179.183 64.3096 177.07C67.9657 172.614 73.2784 172.271 77.2772 173.756C78.9338 174.328 80.3049 175.356 81.4474 176.727C82.1329 177.641 82.5899 178.669 82.8184 179.812C82.9898 180.84 82.5899 181.583 81.5616 181.925C80.362 182.325 79.1052 182.325 77.9056 181.925C77.3343 181.754 76.8773 181.354 76.6488 180.783C76.4203 180.383 76.2489 179.983 76.0204 179.64C75.3349 178.555 74.5352 177.584 73.2213 176.841C72.3644 177.412 71.736 178.155 71.1647 178.955C69.6223 181.125 68.7083 183.582 68.137 186.153C67.223 190.094 66.9374 194.036 67.4515 198.035C67.68 199.691 68.0799 201.291 68.7654 202.833C69.2224 203.804 69.7366 204.719 70.5935 205.518C70.9362 205.404 71.279 205.29 71.5075 205.004C72.5357 204.147 73.5069 203.233 74.4209 202.262C75.5063 201.12 76.5917 199.977 77.3914 198.663C78.4197 197.121 81.5045 196.892 82.9898 197.806V197.806ZM61.8532 200.72C62.2531 201.634 62.3102 200.548 62.1388 199.977C62.0817 199.691 61.9674 199.406 61.8532 199.063V199.006H61.7961C61.7389 198.72 61.6247 198.492 61.6247 198.263C61.6247 198.263 61.4533 199.749 61.8532 200.72ZM65.1094 179.412C65.1665 179.183 65.1665 178.898 64.938 178.898C64.7666 178.84 64.5952 179.012 64.4239 179.126C64.3667 179.24 64.3096 179.355 64.2525 179.412C61.5104 185.181 60.425 191.237 61.6818 197.578V194.664C61.6247 189.58 62.5958 184.724 64.7666 180.154C64.8809 179.869 64.9951 179.64 65.1094 179.412V179.412ZM93.2153 189.637C93.044 194.036 92.8726 198.492 92.6441 202.89C92.5869 204.89 92.3584 206.889 92.2442 208.889C92.2442 209.688 91.8443 210.203 91.1017 210.431C89.8449 210.831 88.5881 210.831 87.3314 210.374C86.6458 210.145 86.3031 209.688 86.1888 208.946C85.9603 206.489 85.7318 204.033 85.7318 201.577C85.789 197.749 85.8461 193.979 85.9603 190.151C86.0175 188.038 86.1317 185.924 86.246 183.868C86.4173 181.011 86.5887 178.155 86.8172 175.299C86.8172 174.785 86.9315 174.27 86.9886 173.813C87.1029 173.014 87.5599 172.499 88.3025 172.271C89.6164 171.871 90.9303 171.871 92.2442 172.385C92.9297 172.614 93.3296 173.128 93.3296 173.871C93.3867 174.499 93.4438 175.07 93.4438 175.699C93.3867 180.326 93.2725 184.61 93.2153 189.295V189.637V189.637ZM87.0457 204.833C87.1029 204.49 87.16 204.376 87.16 204.204C87.4456 201.462 87.3885 198.72 87.3885 195.921C87.3314 191.008 87.8455 186.038 88.3025 181.125C88.4168 179.469 88.6453 177.812 88.8166 176.098C88.8738 175.87 88.8166 175.584 88.4739 175.527C88.3596 175.641 88.1882 175.756 88.1882 175.87C86.9315 185.467 86.1888 195.064 87.0457 204.833V204.833ZM120.979 172.671C121.093 176.498 120.407 180.269 119.95 184.096C119.493 187.866 118.922 191.58 118.294 195.293C117.779 198.435 117.151 201.577 116.523 204.661C116.466 205.176 116.294 205.633 116.18 206.147C115.666 207.86 114.923 208.432 113.152 208.546C112.695 208.603 112.238 208.603 111.838 208.546C110.524 208.432 109.61 207.803 109.153 206.489C108.011 203.347 106.868 200.206 106.012 196.949C105.612 195.464 105.155 194.036 104.698 192.551H104.355V193.636C104.355 196.15 104.412 198.606 104.355 201.062C104.355 202.89 104.184 204.661 104.126 206.489C104.069 207.232 103.727 207.689 103.041 207.975C101.727 208.432 100.47 208.432 99.1564 207.918C98.4709 207.689 98.1282 207.232 98.071 206.489C97.9568 204.262 97.6712 202.091 97.5569 199.92C97.157 194.493 96.8143 189.066 96.9285 183.639C96.9856 180.44 97.2713 177.184 97.4427 173.928C97.4998 173.756 97.4998 173.528 97.5569 173.299C97.6712 172.557 98.071 172.1 98.7565 171.871C100.013 171.528 101.27 171.528 102.47 171.928C102.927 172.1 103.269 172.328 103.669 172.499C104.184 172.728 104.412 173.128 104.583 173.585L106.983 181.125C108.411 185.753 109.839 190.323 111.267 194.95C111.324 195.178 111.439 195.407 111.553 195.635C111.953 195.693 111.896 195.35 111.896 195.178C112.638 189.466 113.381 183.753 114.066 178.041C114.181 177.127 114.238 176.213 114.295 175.299C114.352 174.27 114.638 173.356 115.037 172.442C115.323 171.928 115.666 171.528 116.237 171.357C117.551 170.9 118.922 170.843 120.236 171.414C120.921 171.643 120.979 171.928 120.979 172.671V172.671ZM99.3849 180.554C99.3849 179.24 99.6706 177.869 99.3849 176.441C99.1564 176.613 98.9851 176.67 98.9279 176.784C98.8137 177.07 98.8137 177.298 98.7565 177.584C98.5852 181.525 98.3567 185.467 98.2424 189.409C98.1282 193.179 98.4709 196.949 99.0422 200.72V196.664C99.0422 195.35 98.9851 194.036 98.9851 192.722C98.9851 191.351 99.0422 189.98 99.0422 188.609C99.0993 187.238 99.0993 185.867 99.1564 184.496C99.2136 183.182 99.3849 181.868 99.3849 180.554ZM109.153 193.408C109.496 194.436 109.782 193.693 109.782 193.636C109.553 192.836 109.268 191.865 108.982 190.837V190.78C108.925 190.666 108.868 190.608 108.868 190.494C107.954 187.409 106.811 183.639 106.012 181.297C105.954 181.125 105.84 181.297 105.84 181.354C106.012 184.439 108.182 190.209 109.153 193.408V193.408ZM116.123 177.127C116.18 176.841 116.237 176.498 115.78 176.384C115.666 176.441 115.552 176.498 115.552 176.555C115.037 179.526 114.466 182.497 114.066 185.467C113.838 187.181 113.552 188.895 113.666 190.723C113.781 190.551 113.838 190.494 113.895 190.38C114.409 187.238 114.98 184.039 115.494 180.897C115.723 179.64 115.951 178.383 116.123 177.127V177.127ZM142.458 185.353C142.172 189.58 141.83 193.807 141.658 198.035C141.544 201.291 141.658 204.547 141.658 207.86C141.658 207.975 141.715 208.146 141.715 208.317C141.715 209.574 141.372 209.974 140.173 210.317C139.087 210.545 138.059 210.545 136.974 210.317C135.774 210.031 135.26 209.574 135.146 208.317C134.917 206.261 134.86 204.204 134.689 202.148C134.632 201.577 134.632 201.005 134.575 200.263C132.118 200.034 129.833 200.206 127.491 200.663C127.148 201.348 127.205 202.034 127.091 202.719C127.034 203.29 127.034 203.862 126.977 204.433C126.92 205.176 126.52 205.575 125.834 205.804C124.749 206.147 123.663 206.147 122.578 205.804C121.893 205.575 121.436 205.061 121.378 204.262C121.321 203.804 121.321 203.347 121.321 202.833C121.093 195.121 122.635 187.752 125.549 180.611C126.406 178.441 127.491 176.384 128.805 174.442C129.319 173.699 129.89 173.014 130.461 172.328C132.861 169.472 137.031 169.643 139.202 170.729C140.23 171.243 140.915 172.1 141.372 173.128C141.887 174.27 142.115 175.47 142.287 176.67C142.686 179.526 142.629 182.439 142.458 185.353V185.353ZM125.663 185.296C126.92 181.068 128.805 177.127 131.433 173.528C131.661 173.299 131.832 172.956 132.118 172.442C132.461 171.643 131.49 172.442 131.375 172.557C131.033 172.899 130.747 173.242 130.461 173.642C128.119 176.898 126.463 180.44 125.206 184.267C124.52 186.267 124.063 188.323 123.549 190.38C123.206 191.808 122.921 193.236 122.749 194.721C122.521 196.15 122.521 197.521 122.635 198.949C122.807 198.72 122.864 198.435 122.864 198.149C123.149 196.435 123.264 194.779 123.663 193.122C124.235 190.494 124.92 187.866 125.663 185.296V185.296ZM134.175 197.121C134.403 195.864 134.689 178.441 134.517 176.784C134.175 177.127 134.06 177.241 133.946 177.412C133.603 178.041 133.261 178.612 132.975 179.24C130.347 184.782 128.633 190.666 127.777 196.721C127.719 196.949 127.834 197.121 127.834 197.406C130.062 197.292 132.118 197.178 134.175 197.121V197.121ZM140.63 181.982C140.744 183.411 141.658 183.81 141.715 182.497C142.058 173.813 139.83 172.328 139.83 172.328C140.573 173.642 140.573 180.554 140.63 181.982V181.982ZM182.218 183.239C182.903 185.81 182.903 188.495 182.503 191.123C182.103 193.979 181.475 196.835 180.561 199.634C179.932 201.405 179.19 203.119 178.219 204.719C175.705 208.717 171.021 210.26 166.565 208.603C164.908 207.918 163.709 206.775 162.852 205.233C161.824 203.462 161.252 201.634 160.795 199.634C160.338 197.406 160.053 195.121 160.11 192.779C160.11 189.523 160.51 186.267 161.709 183.239C162.166 182.097 162.68 181.011 163.309 179.983C164.451 178.155 165.937 176.727 167.936 175.87C168.165 175.813 168.336 175.756 168.564 175.641C170.964 174.213 173.363 174.385 175.762 175.756C176.391 176.156 177.076 176.613 177.705 177.012C180.161 178.383 181.589 180.554 182.218 183.239V183.239ZM166.794 177.926C167.193 177.698 166.908 177.698 166.565 177.926C162.852 180.326 161.367 184.496 161.024 188.723C160.567 193.35 160.567 198.549 162.909 202.719C163.08 203.005 163.709 202.719 163.48 202.376C161.367 198.606 161.367 194.093 161.595 189.866C161.824 185.524 162.909 180.44 166.794 177.926V177.926ZM174.677 192.322C174.963 190.494 175.077 188.609 174.963 186.781C174.848 184.953 174.506 183.125 173.649 181.525C173.077 180.497 172.392 179.583 171.249 178.955C170.907 179.412 170.621 179.754 170.335 180.154C169.193 181.811 168.507 183.696 168.05 185.638C167.079 189.58 166.965 193.579 167.479 197.578C167.708 199.577 168.222 201.577 169.021 203.462C169.307 204.09 169.536 204.776 170.221 205.29C170.507 204.947 170.792 204.719 170.964 204.376C171.535 203.176 172.221 201.919 172.678 200.663C173.706 197.978 174.22 195.178 174.677 192.322V192.322ZM180.732 195.007C181.475 192.151 181.703 189.295 181.418 186.381C181.189 184.325 180.789 181.64 179.533 179.926C179.361 179.697 179.018 179.297 179.418 179.812C180.104 180.84 180.161 182.439 180.39 183.925C180.447 184.439 180.504 185.01 180.561 185.581C180.618 186.21 180.675 186.838 180.675 187.409C180.789 189.752 180.504 192.151 179.933 194.436C179.647 195.464 180.561 195.635 180.732 195.007V195.007ZM205.296 171.3C205.925 171.643 205.925 172.328 205.354 172.671C205.068 172.842 204.725 173.014 204.382 173.071C203.754 173.185 203.126 173.242 202.497 173.299C199.412 173.413 196.271 173.585 193.186 173.756C192.9 173.756 192.614 173.813 192.1 173.928C192.272 176.898 192.157 179.754 192.329 182.611C193.186 182.725 193.871 182.611 194.614 182.554C195.414 182.497 196.271 182.439 197.07 182.439C197.87 182.439 198.613 182.611 199.298 183.068C199.927 183.468 199.927 184.096 199.298 184.439C198.841 184.667 198.327 184.839 197.87 184.953L193.243 185.467C192.957 185.524 192.729 185.581 192.386 185.581C192.386 186.095 192.329 186.495 192.329 186.895C192.386 193.75 192.443 200.663 192.557 207.575V207.689C192.557 209.231 192.272 209.631 190.786 209.974C189.758 210.203 188.73 210.145 187.759 209.86C186.902 209.574 186.445 209.06 186.388 208.146C186.045 203.919 185.474 199.691 185.588 195.464C185.645 190.151 185.759 184.896 185.874 179.583C185.931 177.926 186.102 176.27 186.159 174.613C186.216 174.042 186.159 173.471 186.102 172.956C185.988 172.042 186.673 170.9 187.53 170.614C188.501 170.272 189.587 170.214 190.558 170.557C191.301 170.843 192.043 170.9 192.843 170.9C195.756 170.786 198.67 170.671 201.526 170.614C202.497 170.557 203.411 170.557 204.325 170.843C204.668 170.957 205.011 171.128 205.296 171.3V171.3ZM187.987 175.184C188.044 174.899 188.159 174.556 187.644 174.328C187.587 174.442 187.416 174.613 187.359 174.785C187.245 175.47 187.13 176.213 187.13 176.898C186.959 179.64 186.845 182.325 186.673 185.01C186.388 189.523 186.273 194.093 186.502 198.663C186.616 200.32 186.73 201.919 186.845 203.576H187.073V202.662V194.55C187.073 192.608 187.13 190.608 187.187 188.666C187.359 185.41 187.53 182.154 187.759 178.898C187.816 177.641 187.93 176.384 187.987 175.184V175.184ZM203.983 171.7C204.497 171.757 204.611 171.357 204.325 171.3C202.383 170.957 200.212 171.3 198.27 171.357H198.213C198.156 171.357 198.099 171.414 198.041 171.414H197.984H197.927H197.984H198.041C198.099 171.414 198.156 171.357 198.213 171.357H198.27C200.041 171.3 202.154 171.528 203.983 171.7ZM237.858 187.581C238.315 186.724 238.544 186.153 238.829 185.638C240.086 182.896 241.4 180.097 242.714 177.355C243.457 175.87 244.313 174.442 245.113 172.956C245.456 172.328 245.97 171.985 246.598 171.814C247.741 171.528 248.826 171.528 249.912 171.871C250.769 172.1 251.34 172.614 251.511 173.528C251.74 174.556 252.025 175.584 252.083 176.67C252.311 179.754 252.597 182.896 252.654 185.981C252.768 190.951 252.768 195.864 252.711 200.834C252.654 203.347 252.311 205.861 252.14 208.375C252.14 209.06 251.797 209.46 251.169 209.688C249.74 210.203 248.312 210.203 246.941 209.688C246.199 209.403 245.742 208.889 245.742 208.089C245.684 206.832 245.627 205.518 245.627 204.262C245.627 197.978 245.627 191.694 245.684 185.41C245.684 185.01 245.742 184.553 245.456 184.039C245.227 184.325 245.113 184.553 244.999 184.782C243.571 187.809 242.2 190.894 241.171 194.15C240.6 195.978 239.972 196.435 238.03 196.492C237.573 196.492 237.058 196.492 236.601 196.378C235.63 196.207 234.945 195.75 234.488 194.836C233.174 192.322 231.917 189.752 230.832 187.124C230.66 186.667 230.489 186.267 230.26 185.81C229.689 185.924 229.861 186.324 229.861 186.61C229.632 191.065 229.461 195.521 229.232 199.977C229.118 202.262 228.947 204.604 228.889 206.889C228.832 207.689 228.49 208.203 227.747 208.432C226.49 208.832 225.233 208.832 223.919 208.432C223.234 208.203 222.777 207.746 222.663 206.946C222.548 205.233 222.263 203.519 222.206 201.805C222.034 197.806 221.806 193.75 221.92 189.752C222.034 184.839 222.491 179.983 222.834 175.127C222.891 174.156 223.12 173.185 223.234 172.214C223.348 171.3 223.862 170.786 224.719 170.557C226.433 170.157 228.147 170.043 229.689 171.128C229.803 171.243 229.918 171.357 230.089 171.414C231.06 171.757 231.631 172.557 231.974 173.471C233.46 176.841 234.888 180.154 236.259 183.525C236.773 184.782 237.23 186.038 237.858 187.581V187.581ZM241.686 182.325C241.8 182.04 241.457 182.839 241.971 182.211C243.057 180.269 244.428 178.212 245.513 176.327C245.742 175.984 245.684 175.699 245.456 175.641C245.056 175.584 244.77 176.327 244.599 176.727C243.742 178.269 242.942 179.869 242.143 181.411C241.971 181.754 241.857 181.925 241.686 182.325V182.325ZM224.662 174.556C224.034 174.442 224.034 174.899 224.034 175.184C223.805 177.241 223.577 179.24 223.462 181.297C223.177 188.38 223.12 195.407 223.919 202.433C223.977 198.32 223.977 194.207 224.034 190.094C224.091 186.952 224.205 183.868 224.319 180.726C224.376 179.069 224.605 177.412 224.719 175.756C224.719 175.299 224.948 174.556 224.662 174.556ZM250.769 202.89C250.712 203.976 251.397 204.661 251.454 201.919C251.568 198.949 251.683 195.921 251.683 192.951C251.626 190.437 251.454 187.923 251.283 185.41C251.226 184.839 251.111 184.267 250.997 183.696C250.997 183.696 250.94 183.696 250.883 183.753C250.883 190.094 250.826 196.435 250.769 202.89V202.89ZM251.054 205.518C251.34 205.061 251.111 204.376 251.111 204.262C251.054 204.319 250.712 204.262 250.712 205.118C250.712 205.176 250.769 205.633 250.883 205.575C250.94 205.575 250.997 205.518 251.054 205.518ZM277.961 183.239C278.646 185.81 278.646 188.495 278.246 191.123C277.846 193.979 277.218 196.835 276.304 199.634C275.676 201.405 274.933 203.119 273.962 204.719C271.448 208.717 266.764 210.26 262.308 208.603C260.651 207.918 259.452 206.775 258.595 205.233C257.567 203.462 256.995 201.634 256.538 199.634C256.081 197.406 255.796 195.121 255.853 192.779C255.853 189.523 256.253 186.267 257.452 183.239C257.909 182.097 258.424 181.011 259.052 179.983C260.194 178.155 261.68 176.727 263.679 175.87C263.908 175.813 264.079 175.756 264.308 175.641C266.707 174.213 269.106 174.385 271.505 175.756C272.134 176.156 272.819 176.613 273.448 177.012C275.904 178.383 277.332 180.554 277.961 183.239V183.239ZM262.537 177.926C262.936 177.698 262.651 177.698 262.308 177.926C258.595 180.326 257.11 184.496 256.767 188.723C256.31 193.35 256.31 198.549 258.652 202.719C258.823 203.005 259.452 202.719 259.223 202.376C257.11 198.606 257.11 194.093 257.338 189.866C257.567 185.524 258.652 180.44 262.537 177.926V177.926ZM270.42 192.322C270.706 190.494 270.82 188.609 270.706 186.781C270.591 184.953 270.249 183.125 269.392 181.525C268.82 180.497 268.135 179.583 266.992 178.955C266.65 179.412 266.364 179.754 266.078 180.154C264.936 181.811 264.25 183.696 263.793 185.638C262.822 189.58 262.708 193.579 263.222 197.578C263.451 199.577 263.965 201.577 264.765 203.462C265.05 204.09 265.279 204.776 265.964 205.29C266.25 204.947 266.535 204.719 266.707 204.376C267.278 203.176 267.964 201.919 268.421 200.663C269.449 197.978 269.963 195.178 270.42 192.322V192.322ZM276.475 195.007C277.218 192.151 277.446 189.295 277.161 186.381C276.932 184.325 276.532 181.64 275.276 179.926C275.104 179.697 274.762 179.297 275.161 179.812C275.847 180.84 275.904 182.439 276.133 183.925C276.19 184.439 276.247 185.01 276.304 185.581C276.361 186.21 276.418 186.838 276.418 187.409C276.532 189.752 276.247 192.151 275.676 194.436C275.39 195.464 276.304 195.635 276.475 195.007V195.007ZM305.438 172.671C305.552 176.498 304.867 180.269 304.41 184.096C303.953 187.866 303.382 191.58 302.753 195.293C302.239 198.435 301.611 201.577 300.982 204.661C300.925 205.176 300.754 205.633 300.64 206.147C300.125 207.86 299.383 208.432 297.612 208.546C297.155 208.603 296.698 208.603 296.298 208.546C294.984 208.432 294.07 207.803 293.613 206.489C292.471 203.347 291.328 200.206 290.471 196.949C290.071 195.464 289.614 194.036 289.157 192.551H288.815V193.636C288.815 196.15 288.872 198.606 288.815 201.062C288.815 202.89 288.643 204.661 288.586 206.489C288.529 207.232 288.186 207.689 287.501 207.975C286.187 208.432 284.93 208.432 283.616 207.918C282.931 207.689 282.588 207.232 282.531 206.489C282.416 204.262 282.131 202.091 282.017 199.92C281.617 194.493 281.274 189.066 281.388 183.639C281.445 180.44 281.731 177.184 281.902 173.928C281.959 173.756 281.959 173.528 282.017 173.299C282.131 172.557 282.531 172.1 283.216 171.871C284.473 171.528 285.73 171.528 286.929 171.928C287.386 172.1 287.729 172.328 288.129 172.499C288.643 172.728 288.872 173.128 289.043 173.585L291.442 181.125C292.87 185.753 294.299 190.323 295.727 194.95C295.784 195.178 295.898 195.407 296.012 195.635C296.412 195.693 296.355 195.35 296.355 195.178C297.098 189.466 297.84 183.753 298.526 178.041C298.64 177.127 298.697 176.213 298.754 175.299C298.812 174.27 299.097 173.356 299.497 172.442C299.783 171.928 300.125 171.528 300.697 171.357C302.011 170.9 303.382 170.843 304.696 171.414C305.381 171.643 305.438 171.928 305.438 172.671V172.671ZM283.845 180.554C283.845 179.24 284.13 177.869 283.845 176.441C283.616 176.613 283.445 176.67 283.388 176.784C283.273 177.07 283.273 177.298 283.216 177.584C283.045 181.525 282.816 185.467 282.702 189.409C282.588 193.179 282.931 196.949 283.502 200.72V196.664C283.502 195.35 283.445 194.036 283.445 192.722C283.445 191.351 283.502 189.98 283.502 188.609C283.559 187.238 283.559 185.867 283.616 184.496C283.673 183.182 283.845 181.868 283.845 180.554ZM293.613 193.408C293.956 194.436 294.241 193.693 294.241 193.636C294.013 192.836 293.727 191.865 293.442 190.837V190.78C293.385 190.666 293.327 190.608 293.327 190.494C292.413 187.409 291.271 183.639 290.471 181.297C290.414 181.125 290.3 181.297 290.3 181.354C290.471 184.439 292.642 190.209 293.613 193.408V193.408ZM300.582 177.127C300.64 176.841 300.697 176.498 300.24 176.384C300.125 176.441 300.011 176.498 300.011 176.555C299.497 179.526 298.926 182.497 298.526 185.467C298.297 187.181 298.012 188.895 298.126 190.723C298.24 190.551 298.297 190.494 298.355 190.38C298.869 187.238 299.44 184.039 299.954 180.897C300.183 179.64 300.411 178.383 300.582 177.127V177.127ZM331.43 180.097C333.487 187.067 332.23 193.465 327.774 199.234C325.09 202.719 321.719 205.518 317.949 207.746C317.263 208.203 316.521 208.66 315.835 209.117C314.236 210.031 312.579 210.26 310.808 209.746C310.465 209.688 310.123 209.517 309.78 209.346C309.037 208.889 308.523 208.26 308.523 207.346C308.466 207.061 308.466 206.775 308.409 206.547C308.123 199.977 308.123 193.408 308.58 186.838C308.866 182.611 309.266 178.383 309.665 173.928C309.665 173.871 309.608 173.813 309.551 173.699C308.809 172.842 308.866 172.671 309.78 172.042C311.322 171.014 312.979 170.729 314.75 171.014C315.435 171.128 316.121 171.071 316.806 171.071C318.977 171.071 321.091 171.3 323.204 171.928C327.317 173.185 330.174 175.813 331.43 180.097V180.097ZM311.779 179.069C311.893 178.098 311.951 177.07 312.008 176.098C312.008 175.87 311.836 174.385 311.436 175.299C311.265 175.756 311.322 175.984 311.265 176.327C311.094 177.698 310.979 179.069 310.865 180.383C310.694 182.211 310.637 183.982 310.465 185.753C310.065 190.894 309.894 196.035 310.065 201.177C310.065 201.405 309.951 201.691 310.351 201.919C310.408 201.348 310.465 200.834 310.465 200.32C310.637 196.892 310.751 193.408 310.922 189.923C311.037 187.752 311.151 185.638 311.322 183.468C311.436 181.982 311.608 180.554 311.779 179.069V179.069ZM325.261 187.067C325.547 183.81 324.861 180.783 323.433 177.926C322.462 175.984 320.862 174.727 318.749 174.213C318.177 174.099 317.606 173.928 317.035 174.213C316.521 183.753 316.235 193.293 315.892 202.776C316.349 202.948 316.578 202.605 316.806 202.433C318.406 201.12 319.891 199.577 321.205 197.978C322.633 196.207 323.604 194.264 324.29 192.151C324.804 190.494 325.089 188.78 325.261 187.067V187.067ZM330.688 188.209C331.202 183.868 330.231 178.326 327.375 175.927C327.146 175.699 326.975 175.584 327.032 175.641C327.317 176.098 327.546 176.555 327.774 177.012C327.717 176.955 327.717 176.955 327.66 176.955L327.889 177.184C329.488 180.44 330.002 183.868 329.774 187.581C329.717 189.009 330.688 188.38 330.688 188.209V188.209ZM343.37 173.471C343.313 173.756 343.256 173.928 343.256 174.156C343.256 181.468 343.256 188.723 343.313 196.035C343.313 196.15 343.427 196.321 343.484 196.55C344.398 196.492 345.312 196.321 346.226 196.207C347.14 196.092 348.111 196.035 349.082 196.035C349.539 196.035 350.054 196.264 350.453 196.492C351.025 196.778 351.025 197.406 350.453 197.749C349.882 198.035 349.254 198.206 348.625 198.32C347.426 198.606 346.169 198.777 344.969 199.006C344.455 199.12 343.998 199.234 343.484 199.406C343.427 201.462 343.541 203.519 343.884 205.518C343.941 205.747 344.055 205.975 344.112 206.147C344.341 206.832 344.798 207.232 345.541 207.289C346.34 207.289 347.14 207.346 347.94 207.289C349.425 207.175 350.853 207.061 352.281 206.946C352.967 206.889 353.595 206.946 354.224 207.004C354.509 207.004 354.795 207.118 355.023 207.175C355.652 207.346 356.052 207.803 355.995 208.146C355.938 208.603 355.538 208.832 355.138 209.003C354.681 209.117 354.167 209.289 353.71 209.346C351.482 209.517 349.311 209.746 347.083 209.917C345.541 210.031 343.941 209.917 342.399 209.631C341.713 209.517 341.028 209.289 340.399 209.06C339.257 208.546 338.4 207.689 338 206.547C337.714 205.69 337.429 204.776 337.314 203.862C337.086 201.062 336.857 198.263 336.686 195.464C336.4 191.18 336.515 186.838 336.629 182.497C336.686 180.211 336.8 177.869 336.915 175.527C336.915 174.956 336.972 174.385 336.972 173.756C336.515 173.471 336.115 173.242 335.715 172.956C335.372 172.671 335.315 172.1 335.772 171.871C336.172 171.585 336.686 171.3 337.2 171.186C338.343 170.9 339.542 170.671 340.685 170.557C344.284 170.272 347.94 170.157 351.539 170.786C352.167 170.9 352.796 171.128 353.31 171.414C353.995 171.757 353.938 172.499 353.253 172.785C352.738 173.071 352.053 173.299 351.425 173.356C350.568 173.471 349.711 173.356 348.854 173.356H344.341C343.998 173.356 343.713 173.413 343.37 173.471V173.471ZM338.057 174.67C337.543 175.756 337.486 176.613 337.314 183.81C337.257 186.838 337.257 189.866 337.314 192.893C337.429 195.921 337.6 198.949 338.171 201.919C338.228 201.062 338.228 200.206 338.228 199.349C338.171 195.293 337.943 191.237 338 187.238C338.057 183.411 338.286 179.583 338.457 175.756C338.457 175.47 338.457 175.184 338.4 174.956C338.4 174.842 338.171 174.785 338.057 174.67V174.67Z" fill="url(#paint3_linear_6_75)"/>
<path d="M173.119 238.683C174.523 239.807 175.054 241.242 174.835 242.99C174.71 244.145 174.242 245.175 173.587 246.142C172.619 247.609 171.433 248.826 169.966 249.794C169.498 250.106 169.03 250.387 168.562 250.699C168.406 250.793 168.281 250.886 168.063 251.073C168.749 251.23 169.249 251.323 169.748 251.479C170.435 251.635 171.09 251.885 171.683 252.228C172.182 252.509 172.619 252.852 172.963 253.321C173.462 253.976 173.556 254.694 173.181 255.443C172.963 255.88 172.651 256.223 172.276 256.504C171.714 256.972 171.121 257.284 170.435 257.472C169.498 257.784 168.531 257.94 167.563 258.065C167.251 258.127 166.908 258.158 166.596 258.221C166.346 258.252 166.159 258.314 165.972 258.47C165.16 259.063 164.255 259.032 163.35 258.782C162.882 258.658 162.694 258.314 162.632 257.846C162.351 256.098 162.164 254.382 162.101 252.603C161.977 249.419 161.945 246.236 162.133 243.084C162.226 241.804 162.32 240.556 162.414 239.307C162.414 239.089 162.414 238.901 162.257 238.683C162.07 238.464 162.101 238.246 162.32 238.121C162.57 237.934 162.882 237.747 163.194 237.622C163.974 237.31 164.786 237.216 165.628 237.122C167.251 236.904 168.843 236.966 170.435 237.403C171.433 237.653 172.338 238.059 173.119 238.683V238.683ZM163.537 239.713V239.65C163.506 239.588 163.475 239.494 163.443 239.494C163.381 239.494 163.256 239.526 163.225 239.557C163.131 239.963 163.007 240.368 162.944 240.774C162.882 241.305 162.882 241.866 162.85 242.428C162.819 244.238 162.85 246.049 162.788 247.859C162.694 249.95 162.882 252.041 163.069 254.132C163.1 254.569 163.194 255.037 163.287 255.505C163.287 255.474 163.319 255.474 163.319 255.474C163.287 254.226 163.225 252.977 163.225 251.729C163.194 249.388 163.194 247.047 163.194 244.707C163.194 243.052 163.163 241.367 163.537 239.713V239.713ZM168.999 253.227C168.156 252.696 167.22 252.509 166.19 252.416C166.065 253.882 166.096 255.287 166.128 256.754C166.97 256.691 167.938 256.473 168.5 256.254C168.905 256.098 169.28 255.849 169.592 255.505C170.123 254.85 170.06 254.132 169.467 253.57C169.342 253.445 169.186 253.321 168.999 253.227V253.227ZM171.683 242.834C171.902 241.086 171.09 239.557 169.467 238.839C168.344 238.34 167.158 238.246 165.94 238.496C165.909 238.496 165.847 238.527 165.753 238.589C165.784 238.839 165.784 239.12 165.815 239.401C165.878 239.963 165.972 240.556 165.972 241.149C166.034 243.77 166.065 246.423 166.128 249.076C166.128 249.263 166.159 249.482 166.159 249.669C166.252 249.7 166.284 249.731 166.315 249.7C166.44 249.669 166.565 249.607 166.689 249.544C168.5 248.452 169.842 246.922 170.903 245.143C171.34 244.426 171.558 243.645 171.683 242.834V242.834ZM174.398 242.522C174.617 240.899 172.9 239.245 172.963 239.307C173.212 239.619 173.4 240.087 173.556 240.556V240.618L173.587 240.649C173.837 241.585 173.868 242.584 173.868 242.99C173.837 243.583 174.18 244.145 174.398 242.522V242.522ZM173.556 240.618V240.587V240.618ZM200.097 248.265C200.222 249.981 200.128 251.698 200.035 253.414C199.941 254.787 199.785 256.192 199.66 257.565C199.629 258.033 199.535 258.47 199.473 258.876C199.317 260.031 198.661 260.936 197.663 261.529C197.226 261.81 196.789 262.06 196.352 262.184C195.509 262.496 194.635 262.809 193.792 263.089C192.95 263.308 192.076 263.433 191.202 263.152C190.703 262.996 190.359 262.746 190.422 262.496C190.515 262.122 190.827 261.966 191.171 261.903C192.107 261.654 192.981 261.248 193.886 260.811C195.103 260.187 195.79 259.282 195.977 258.002C196.196 256.629 196.352 255.287 196.508 253.945C196.539 253.477 196.664 253.009 196.508 252.478C196.227 252.634 195.946 252.759 195.665 252.852C194.76 253.289 193.792 253.414 192.794 253.258C192.388 253.227 191.982 253.071 191.639 252.852C189.891 252.01 188.799 249.357 189.423 247.578C189.641 247.047 189.985 246.704 190.547 246.579C191.046 246.486 191.483 246.454 191.92 246.61C192.513 246.766 192.606 246.922 192.482 247.578C192.107 249.076 192.513 250.387 193.605 251.604C193.792 251.448 194.042 251.354 194.136 251.198C194.542 250.574 194.978 249.981 195.384 249.357C195.696 248.826 195.977 248.265 196.258 247.703C196.539 247.11 197.038 246.798 197.663 246.735C197.943 246.704 198.224 246.704 198.474 246.735C199.847 246.86 200.066 247.297 200.097 248.265V248.265ZM190.359 250.699C190.484 250.793 190.515 250.824 190.422 250.699C189.548 249.981 189.891 248.015 190.391 247.11C190.422 247.016 190.234 246.922 190.172 247.047C189.798 247.672 189.766 248.358 189.766 249.045C189.798 249.7 189.891 250.293 190.359 250.699V250.699ZM199.254 256.566C199.473 254.756 199.785 252.977 199.754 251.167C199.754 251.136 199.691 251.136 199.691 251.136C199.504 252.852 199.254 254.569 199.067 256.286C198.973 257.159 198.849 258.002 198.661 258.814C198.474 259.531 198.1 260.312 197.507 260.842C197.507 260.842 196.976 261.467 197.694 261.186C198.38 260.874 198.63 259.844 198.786 259.188C199.036 258.345 199.192 257.44 199.254 256.566V256.566Z" fill="url(#paint4_linear_6_75)"/>
<path d="M17.6504 273.659C18.0535 273.879 18.0535 274.319 17.6871 274.538C17.5039 274.648 17.284 274.758 17.0642 274.795C16.6611 274.868 16.2581 274.905 15.855 274.942C13.8765 275.015 11.8613 275.125 9.88269 275.235C9.69948 275.235 9.51628 275.271 9.18652 275.345C9.29644 277.25 9.22316 279.082 9.33308 280.914C9.88269 280.987 10.3224 280.914 10.7987 280.877C11.3117 280.841 11.8613 280.804 12.3742 280.804C12.8872 280.804 13.3635 280.914 13.8032 281.207C14.2062 281.463 14.2062 281.867 13.8032 282.086C13.5101 282.233 13.1803 282.343 12.8872 282.416L9.91933 282.746C9.73612 282.783 9.58956 282.819 9.36972 282.819C9.36972 283.149 9.33308 283.405 9.33308 283.662C9.36972 288.059 9.40636 292.492 9.47964 296.926V296.999C9.47964 297.988 9.29644 298.245 8.34379 298.465C7.68427 298.611 7.02475 298.574 6.40186 298.391C5.85226 298.208 5.55914 297.878 5.52249 297.292C5.30265 294.581 4.93625 291.869 5.00953 289.158C5.04617 285.75 5.11945 282.379 5.19273 278.972C5.22937 277.909 5.33929 276.847 5.37593 275.784C5.41257 275.418 5.37593 275.051 5.33929 274.722C5.26601 274.135 5.7057 273.403 6.2553 273.219C6.87818 273 7.57435 272.963 8.19723 273.183C8.67356 273.366 9.14988 273.403 9.66284 273.403C11.5315 273.329 13.4002 273.256 15.2322 273.219C15.855 273.183 16.4413 273.183 17.0275 273.366C17.2474 273.439 17.4672 273.549 17.6504 273.659V273.659ZM6.54842 276.151C6.58506 275.967 6.65834 275.748 6.32858 275.601C6.29194 275.674 6.18202 275.784 6.14538 275.894C6.0721 276.334 5.99882 276.81 5.99882 277.25C5.8889 279.009 5.81562 280.731 5.7057 282.453C5.52249 285.347 5.44921 288.279 5.59578 291.21C5.66906 292.272 5.74234 293.298 5.81562 294.361H5.96218V293.775V288.572C5.96218 287.326 5.99882 286.044 6.03546 284.798C6.14538 282.709 6.2553 280.621 6.40186 278.532C6.4385 277.726 6.51178 276.92 6.54842 276.151V276.151ZM16.8077 273.916C17.1375 273.952 17.2107 273.696 17.0275 273.659C15.7818 273.439 14.3894 273.659 13.1437 273.696H13.107C13.0704 273.696 13.0337 273.732 12.9971 273.732H12.9605H12.9238H12.9605H12.9971C13.0337 273.732 13.0704 273.696 13.107 273.696H13.1437C14.2795 273.659 15.6352 273.806 16.8077 273.916ZM33.3471 288.828C33.5303 285.604 33.7135 282.233 33.9334 278.899C34.0066 277.836 34.373 277.506 35.4356 277.506C35.6188 277.506 35.8386 277.543 36.0218 277.58C36.6081 277.69 36.8646 277.946 36.8646 278.569C36.8646 279.851 36.8279 281.134 36.7913 282.416C36.718 284.395 36.5714 286.373 36.4982 288.388C36.3882 290.697 36.2783 293.005 36.1684 295.35C36.1318 296.083 36.1684 296.852 36.1684 297.585C36.1318 298.098 35.9852 298.318 35.5089 298.428C35.0692 298.538 34.5929 298.538 34.1532 298.391C33.7135 298.318 33.457 298.062 33.3837 297.585C33.3471 297.255 33.3471 296.889 33.3471 296.523V288.828V288.828ZM33.7502 291.833C33.7868 291.869 33.8234 291.869 33.8234 291.869L33.9334 289.451C34.0066 288.608 34.0799 287.802 34.0799 286.996C34.1166 286.19 34.1166 285.347 34.1532 284.541C34.1898 283.735 34.2998 282.892 34.3364 282.086C34.3364 281.28 34.8127 278.972 34.2265 279.631C34.1898 279.631 34.1532 280.108 34.1532 280.474C34.0066 282.856 33.6402 285.237 33.7868 287.619C33.7868 287.839 33.7502 288.095 33.7502 288.315V291.833ZM81.3239 295.9C81.5071 296.12 81.5071 296.449 81.2872 296.559C80.9575 296.742 80.5911 296.779 80.2613 296.779C79.5285 296.742 78.869 296.559 78.2461 296.156C76.7072 295.24 75.1683 294.288 73.6294 293.335C73.4096 293.225 73.1897 293.078 72.9332 292.895C72.7134 293.298 72.7134 293.628 72.6401 293.921L71.9806 298.208C71.944 298.355 71.944 298.501 71.9073 298.648C71.834 298.978 71.6508 299.161 71.3577 299.234C70.6982 299.381 70.002 299.344 69.3791 298.978C68.9395 298.758 68.9028 298.355 69.1593 297.695C69.4891 297.072 69.5257 296.339 69.4524 295.643C69.3791 295.314 69.5623 294.984 69.4891 294.691C69.1593 294.727 69.1227 294.91 68.9761 295.057C68.0234 296.083 66.8876 296.889 65.6052 297.475C63.6266 298.391 61.5748 298.501 59.5229 297.805C57.3245 297.109 56.2986 295.533 56.3718 293.152C56.4451 291.833 56.7749 290.55 57.5443 289.414C59.1199 286.96 61.245 285.311 64.1029 284.651C64.9823 284.468 65.7884 284.468 66.6311 284.724C66.8876 284.761 67.1441 284.908 67.3273 285.091C67.657 285.457 68.0234 285.567 68.3532 285.714C69.1959 286.007 69.9287 286.556 70.4783 287.436C70.5516 287.289 70.6249 287.179 70.6249 287.106C70.7348 286.593 70.7715 286.117 70.8814 285.677C70.9547 285.128 70.4051 284.944 70.6249 284.248C70.7348 283.552 70.918 283.479 71.1379 283.295C71.2112 283.259 71.2844 283.149 71.3211 283.076C71.431 282.892 71.7608 282.856 71.9806 282.856C72.5302 282.819 73.1164 282.856 73.5928 283.112C73.8859 283.259 74.2523 283.332 74.6187 283.369C75.4248 283.515 76.1942 283.772 76.8904 284.248C77.2934 284.468 77.6965 284.724 78.0629 285.091C78.9422 285.934 79.1621 286.996 78.9056 288.169C78.6491 289.378 78.0262 290.294 76.927 290.953C76.6339 291.1 76.3041 291.283 75.9744 291.466C75.8278 291.576 75.6446 291.686 75.4248 291.833C75.9744 292.199 76.4507 292.602 76.927 292.895C78.2094 293.738 79.4918 294.617 80.7743 295.46C80.9575 295.57 81.1407 295.753 81.3239 295.9V295.9ZM77.0003 284.871C76.8171 284.724 76.5973 284.981 76.7805 285.128C77.44 285.604 78.0629 286.153 78.1362 286.996C78.2094 287.766 78.0262 288.572 77.4766 289.158C77.4034 289.231 77.4766 289.414 77.6232 289.414C77.6232 289.451 77.5499 289.451 77.5499 289.488C77.9163 289.561 78.0262 289.341 78.1362 289.158C78.356 288.645 78.4659 288.169 78.5392 287.619C78.6491 286.593 78.2827 285.787 77.4766 285.201C77.2934 285.128 77.1469 284.981 77.0003 284.871V284.871ZM57.7275 291.576C57.8008 291.32 57.4711 291.21 57.3611 291.43C57.1779 291.833 57.068 292.236 57.0314 292.675C57.0314 292.895 57.3611 293.005 57.3611 292.712C57.3978 292.529 57.3978 292.382 57.5077 292.126C57.5077 292.089 57.5443 292.016 57.5443 291.979C57.581 291.833 57.6543 291.686 57.7275 291.576V291.576ZM57.984 290.624C59.0099 288.792 60.5122 287.289 62.3808 286.19C62.564 286.117 62.3442 285.787 62.161 285.934C61.7213 286.153 61.3183 286.41 60.9519 286.74C59.9259 287.399 59.0832 288.315 58.3871 289.341C58.1306 289.671 57.8741 290.074 57.6543 290.477C57.5443 290.697 57.8741 290.843 57.984 290.624V290.624ZM66.5212 293.481C66.9242 292.932 67.254 292.382 67.3639 291.649C67.1074 291.576 66.9242 291.466 66.7044 291.393C64.909 290.77 63.1503 290.037 61.7946 288.608C61.7213 288.645 61.6114 288.718 61.5748 288.755C60.732 289.671 60.0359 290.807 59.7427 292.053C59.4863 293.005 59.3763 293.921 59.5962 294.874C59.7427 295.314 59.8893 295.753 60.1824 296.12C60.5855 296.596 61.0618 296.889 61.7213 296.742C62.0144 296.706 62.2709 296.669 62.564 296.559C64.1762 295.9 65.5319 294.91 66.5212 293.481V293.481ZM67.6937 290.001C67.8402 289.158 67.767 288.792 67.6204 288.169C67.4738 287.802 67.2906 287.509 67.0708 287.179C66.741 286.74 66.2647 286.593 65.7884 286.776C65.4953 286.923 65.2754 287.106 65.0556 287.289C64.6525 287.729 64.6525 288.242 65.1289 288.645C65.8617 289.268 66.7044 289.671 67.6937 290.001ZM71.1745 286.007C71.1379 286.227 71.5043 286.3 71.5409 286.08C71.5409 285.897 71.5776 285.714 71.5776 285.531C71.6508 285.274 71.7241 284.981 71.7241 284.724C71.7608 284.651 71.7974 284.505 71.834 284.358C71.9073 284.138 71.5409 284.028 71.5043 284.248C71.3211 284.798 71.2112 285.384 71.1745 286.007V286.007ZM69.9654 298.025C70.002 297.768 70.0753 297.512 70.1119 297.219C70.1852 296.559 70.2951 295.9 70.4051 295.24C70.4783 294.984 70.0753 294.947 70.0753 295.167C69.8921 296.156 69.7455 297.109 69.599 298.098C69.5623 298.318 69.9287 298.355 69.9654 298.135V298.025V298.025ZM74.3622 289.634C75.2416 289.011 75.6813 288.169 75.7912 287.106C75.8645 286.007 75.2416 285.164 74.179 284.944C73.8492 286.593 73.5561 288.242 73.3363 289.891C73.3363 289.964 73.3363 290.037 73.3729 290.184C73.776 290.074 74.0691 289.854 74.3622 289.634ZM79.3819 295.094C79.272 294.874 79.272 294.874 78.9789 294.984C79.1621 295.057 79.3086 295.057 79.3819 295.094ZM79.4919 295.094C79.5651 295.387 79.8582 295.46 80.1514 295.387C79.9315 295.313 79.7117 295.24 79.4919 295.094ZM136.936 284.102C137.23 283.552 137.376 283.186 137.559 282.856C138.365 281.097 139.208 279.302 140.051 277.543C140.527 276.59 141.077 275.674 141.59 274.722C141.81 274.319 142.139 274.099 142.542 273.989C143.275 273.806 143.971 273.806 144.668 274.026C145.217 274.172 145.584 274.502 145.693 275.088C145.84 275.748 146.023 276.407 146.06 277.103C146.206 279.082 146.39 281.097 146.426 283.076C146.5 286.263 146.5 289.414 146.463 292.602C146.426 294.214 146.206 295.826 146.096 297.439C146.096 297.878 145.877 298.135 145.474 298.281C144.558 298.611 143.642 298.611 142.762 298.281C142.286 298.098 141.993 297.768 141.993 297.255C141.956 296.449 141.92 295.607 141.92 294.801C141.92 290.77 141.92 286.74 141.956 282.709C141.956 282.453 141.993 282.16 141.81 281.83C141.663 282.013 141.59 282.16 141.516 282.306C140.6 284.248 139.721 286.227 139.062 288.315C138.695 289.488 138.292 289.781 137.046 289.817C136.753 289.817 136.423 289.817 136.13 289.744C135.507 289.634 135.068 289.341 134.775 288.755C133.932 287.143 133.126 285.494 132.43 283.808C132.32 283.515 132.21 283.259 132.063 282.966C131.697 283.039 131.807 283.295 131.807 283.479C131.66 286.337 131.55 289.195 131.404 292.053C131.33 293.518 131.221 295.02 131.184 296.486C131.147 296.999 130.927 297.329 130.451 297.475C129.645 297.732 128.839 297.732 127.996 297.475C127.557 297.329 127.263 297.036 127.19 296.523C127.117 295.423 126.934 294.324 126.897 293.225C126.787 290.66 126.641 288.059 126.714 285.494C126.787 282.343 127.08 279.228 127.3 276.114C127.337 275.491 127.483 274.868 127.557 274.245C127.63 273.659 127.96 273.329 128.509 273.183C129.608 272.926 130.708 272.853 131.697 273.549C131.77 273.622 131.843 273.696 131.953 273.732C132.576 273.952 132.943 274.465 133.162 275.051C134.115 277.213 135.031 279.338 135.911 281.5C136.24 282.306 136.533 283.112 136.936 284.102V284.102ZM139.391 280.731C139.465 280.547 139.245 281.06 139.575 280.657C140.271 279.412 141.15 278.093 141.846 276.883C141.993 276.664 141.956 276.48 141.81 276.444C141.553 276.407 141.37 276.883 141.26 277.14C140.71 278.129 140.197 279.155 139.684 280.144C139.575 280.364 139.501 280.474 139.391 280.731V280.731ZM128.473 275.748C128.069 275.674 128.069 275.967 128.069 276.151C127.923 277.47 127.776 278.752 127.703 280.071C127.52 284.615 127.483 289.121 127.996 293.628C128.033 290.99 128.033 288.352 128.069 285.714C128.106 283.699 128.179 281.72 128.253 279.705C128.289 278.642 128.436 277.58 128.509 276.517C128.509 276.224 128.656 275.748 128.473 275.748ZM145.217 293.921C145.18 294.617 145.62 295.057 145.657 293.298C145.73 291.393 145.803 289.451 145.803 287.546C145.767 285.934 145.657 284.321 145.547 282.709C145.51 282.343 145.437 281.976 145.364 281.61C145.364 281.61 145.327 281.61 145.29 281.647C145.29 285.714 145.254 289.781 145.217 293.921V293.921ZM145.4 295.607C145.584 295.313 145.437 294.874 145.437 294.801C145.4 294.837 145.18 294.801 145.18 295.35C145.18 295.387 145.217 295.68 145.29 295.643C145.327 295.643 145.364 295.607 145.4 295.607ZM177.915 288.792C178.025 289.195 178.025 289.634 178.061 289.964C177.988 292.162 177.439 294.104 176.193 295.863C174.727 297.915 172.712 298.904 170.147 298.721C168.169 298.611 166.776 297.585 166.08 295.68C165.677 294.654 165.604 293.591 165.677 292.529C165.824 290.917 166.227 289.378 166.886 287.912C167.253 287.143 167.692 286.41 168.242 285.787C169.378 284.541 170.807 284.065 172.382 284.321C173.262 284.431 174.068 284.688 174.874 284.944C176.669 285.604 177.585 286.996 177.915 288.792V288.792ZM166.556 293.225C166.556 291.686 166.886 290.184 167.546 288.755C168.169 287.436 169.011 285.421 170.404 284.834C170.697 284.688 170.587 284.615 170.33 284.761C168.938 285.311 167.949 286.96 167.289 288.279C166.483 289.817 166.117 291.54 166.08 293.298C166.08 293.885 166.556 294.068 166.556 293.225V293.225ZM172.309 295.863C173.811 293.848 174.507 291.576 174.178 289.121C174.031 288.095 173.591 287.179 172.749 286.447C172.162 286.483 171.686 286.556 171.21 286.63C171.136 286.703 171.063 286.813 170.953 286.923C169.671 289.195 169.121 291.686 169.378 294.288C169.451 295.02 169.707 295.68 170.111 296.303C170.33 296.596 170.477 296.889 170.88 296.962C171.503 296.816 171.979 296.376 172.309 295.863V295.863ZM177.439 291.906C177.585 290.477 178.025 288.645 177.145 287.436C177.036 287.253 176.926 287.363 177.036 287.582C177.585 288.792 177.182 290.514 176.962 291.833C176.889 292.492 177.402 292.456 177.439 291.906ZM207.791 286.96C207.791 288.498 207.718 290.001 207.681 291.503C207.645 293.078 207.608 294.617 207.572 296.193C207.572 296.779 207.608 297.292 207.645 297.915C206.912 298.465 206.143 298.428 205.373 298.062C205.117 297.952 204.97 297.695 204.933 297.402C204.86 296.926 204.787 296.449 204.75 296.01C204.64 293.738 204.64 291.503 204.824 289.231C204.86 288.498 204.86 287.766 204.933 287.069C204.933 286.85 204.86 286.666 204.824 286.483C204.604 286.373 204.53 286.52 204.42 286.666C204.054 287.363 203.651 288.095 203.285 288.828C202.259 291.1 201.563 293.408 200.866 295.79C200.83 295.9 200.83 295.936 200.83 296.01C200.573 296.999 200.097 297.329 199.034 297.255C198.888 297.255 198.741 297.219 198.558 297.182C198.008 296.999 197.862 296.852 197.862 296.23C197.789 292.859 197.605 289.524 197.752 286.153C197.752 286.044 197.789 285.97 197.789 285.86C197.789 285.091 197.972 284.724 199.034 284.615C199.218 284.615 199.401 284.651 199.547 284.651C200.28 284.798 200.5 285.054 200.427 285.75C200.427 286.41 200.39 287.069 200.353 287.692C200.353 287.876 200.39 288.059 200.39 288.242C200.72 288.169 200.756 287.949 200.83 287.766C201.269 286.923 201.709 286.08 202.405 285.421C203.431 284.285 204.714 283.955 206.179 284.321C206.912 284.505 207.388 284.944 207.608 285.677C207.681 286.117 207.791 286.556 207.791 286.96V286.96ZM198.485 291.613C198.338 289.524 198.228 287.876 198.302 285.75C198.338 284.908 198.155 285.091 198.155 285.311C198.118 285.86 198.082 286.373 198.045 286.886V287.179C198.008 288.645 197.972 290.074 198.082 291.54C198.082 292.016 198.521 292.382 198.485 291.613ZM205.373 285.018C205.63 285.091 205.556 284.908 205.373 284.871C203.981 284.505 202.918 285.274 202.112 286.373C201.892 286.74 202.185 287.143 202.515 286.52C203.065 285.494 204.164 284.724 205.373 285.018ZM207.315 297.549C207.315 297.658 207.462 297.952 207.425 297.695C207.278 296.816 207.278 295.826 207.315 294.91C207.352 294.361 207.022 294.507 207.022 294.691C207.022 295.607 207.168 296.596 207.315 297.549V297.549ZM236.715 283.808C236.825 283.845 236.935 284.028 236.935 284.212C236.972 284.321 236.825 284.468 236.752 284.505C236.385 284.651 236.056 284.761 235.726 284.798C234.956 284.871 234.187 284.908 233.418 284.981C233.198 285.347 233.234 285.75 233.198 286.117C233.015 289.121 232.868 292.053 232.685 295.02C232.648 295.607 232.575 296.266 232.538 296.852C232.502 297.219 232.282 297.475 231.915 297.549C231.549 297.622 231.219 297.622 230.853 297.622C230.083 297.549 229.9 297.365 229.9 296.523C229.973 293.152 230.083 289.817 230.12 286.447C230.157 286.044 230.157 285.677 230.157 285.201H228.434C228.031 285.201 227.592 285.091 227.225 284.908C226.969 284.724 226.969 284.321 227.225 284.212C227.555 284.102 227.922 283.955 228.215 283.882C228.838 283.808 229.497 283.772 230.157 283.699C230.193 283.369 230.23 283.112 230.23 282.819C230.303 281.647 230.34 280.438 230.413 279.265C230.413 279.119 230.413 278.972 230.45 278.825C230.596 277.836 230.853 277.58 231.842 277.506C232.099 277.47 232.392 277.506 232.648 277.543C233.418 277.69 233.564 277.873 233.564 278.642C233.527 279.558 233.491 280.511 233.454 281.463C233.418 282.123 233.418 282.783 233.381 283.479C233.601 283.552 233.784 283.589 234.004 283.589C234.517 283.589 235.066 283.552 235.579 283.589C235.946 283.589 236.312 283.699 236.715 283.808V283.808ZM230.889 280.694C230.889 279.961 231.036 279.302 230.963 278.422C230.816 278.606 230.853 278.422 230.853 278.496C230.376 283.002 230.376 287.656 230.523 292.126C230.596 291.393 230.67 290.66 230.706 289.891C230.743 289.158 230.743 288.388 230.779 287.656C230.816 286.923 230.779 286.153 230.816 285.421C230.853 284.651 230.816 283.772 230.853 283.039C230.889 282.233 230.889 281.5 230.889 280.694V280.694ZM236.385 284.175C236.422 284.212 236.605 284.358 236.569 284.212C236.495 283.955 236.239 283.882 235.946 283.845C235.433 283.772 234.883 283.845 234.37 283.845C234.297 283.882 234.517 283.955 234.553 283.955C234.956 283.918 236.056 283.735 236.385 284.175V284.175ZM267.105 288.792C267.215 289.195 267.215 289.634 267.251 289.964C267.178 292.162 266.628 294.104 265.383 295.863C263.917 297.915 261.902 298.904 259.337 298.721C257.358 298.611 255.966 297.585 255.27 295.68C254.867 294.654 254.794 293.591 254.867 292.529C255.013 290.917 255.416 289.378 256.076 287.912C256.442 287.143 256.882 286.41 257.432 285.787C258.567 284.541 259.996 284.065 261.572 284.321C262.451 284.431 263.257 284.688 264.063 284.944C265.859 285.604 266.775 286.996 267.105 288.792V288.792ZM255.746 293.225C255.746 291.686 256.076 290.184 256.735 288.755C257.358 287.436 258.201 285.421 259.593 284.834C259.887 284.688 259.777 284.615 259.52 284.761C258.128 285.311 257.138 286.96 256.479 288.279C255.673 289.817 255.306 291.54 255.27 293.298C255.27 293.885 255.746 294.068 255.746 293.225V293.225ZM261.499 295.863C263.001 293.848 263.697 291.576 263.367 289.121C263.221 288.095 262.781 287.179 261.938 286.447C261.352 286.483 260.876 286.556 260.399 286.63C260.326 286.703 260.253 286.813 260.143 286.923C258.861 289.195 258.311 291.686 258.567 294.288C258.641 295.02 258.897 295.68 259.3 296.303C259.52 296.596 259.667 296.889 260.07 296.962C260.693 296.816 261.169 296.376 261.499 295.863V295.863ZM266.628 291.906C266.775 290.477 267.215 288.645 266.335 287.436C266.225 287.253 266.115 287.363 266.225 287.582C266.775 288.792 266.372 290.514 266.152 291.833C266.079 292.492 266.592 292.456 266.628 291.906ZM296.688 286.263C297.567 286.41 297.751 286.593 297.567 287.546C297.274 289.231 296.944 290.99 296.578 292.712C296.322 293.628 296.065 294.471 295.735 295.387C295.552 295.9 295.296 296.449 294.929 296.926C293.94 298.465 292.035 299.087 290.386 298.574C289.69 298.391 289.213 298.025 288.774 297.439C288.114 296.596 287.674 295.57 287.455 294.471C286.978 292.346 287.125 290.257 287.418 288.095C287.528 287.399 287.894 286.996 288.517 286.923C288.774 286.886 288.994 286.85 289.177 286.85C290.239 286.886 290.496 287.179 290.496 288.279C290.496 289.524 290.496 290.77 290.532 292.053C290.569 293.225 290.752 294.361 291.229 295.46C291.302 295.753 291.522 295.973 291.705 296.376C291.925 296.046 292.071 295.79 292.181 295.57C292.511 294.581 292.841 293.555 293.097 292.565C293.5 290.917 293.903 289.268 294.343 287.692C294.636 286.556 295.003 286.263 296.138 286.227C296.322 286.227 296.505 286.227 296.688 286.263V286.263ZM288.151 290.77C288.187 289.634 288.297 288.828 288.297 288.205C287.748 289.048 287.711 291.027 288.224 293.408C288.187 292.419 288.114 291.576 288.151 290.77V290.77ZM295.296 295.094C296.065 292.675 296.505 290.111 296.798 287.619C296.798 287.509 296.688 287.582 296.688 287.656C296.468 289.524 295.992 291.32 295.442 293.078L295.186 293.738C295.186 293.775 295.003 294.178 295.003 294.214C294.893 294.544 294.819 294.654 294.746 294.947C294.526 296.303 295.259 295.167 295.296 295.094V295.094ZM325.648 283.808C325.758 283.845 325.868 284.028 325.868 284.212C325.905 284.321 325.758 284.468 325.685 284.505C325.319 284.651 324.989 284.761 324.659 284.798C323.89 284.871 323.12 284.908 322.351 284.981C322.131 285.347 322.168 285.75 322.131 286.117C321.948 289.121 321.801 292.053 321.618 295.02C321.581 295.607 321.508 296.266 321.471 296.852C321.435 297.219 321.215 297.475 320.849 297.549C320.482 297.622 320.152 297.622 319.786 297.622C319.017 297.549 318.833 297.365 318.833 296.523C318.907 293.152 319.017 289.817 319.053 286.447C319.09 286.044 319.09 285.677 319.09 285.201H317.368C316.965 285.201 316.525 285.091 316.159 284.908C315.902 284.724 315.902 284.321 316.159 284.212C316.488 284.102 316.855 283.955 317.148 283.882C317.771 283.808 318.43 283.772 319.09 283.699C319.126 283.369 319.163 283.112 319.163 282.819C319.236 281.647 319.273 280.438 319.346 279.265C319.346 279.119 319.346 278.972 319.383 278.825C319.53 277.836 319.786 277.58 320.775 277.506C321.032 277.47 321.325 277.506 321.581 277.543C322.351 277.69 322.497 277.873 322.497 278.642C322.461 279.558 322.424 280.511 322.387 281.463C322.351 282.123 322.351 282.783 322.314 283.479C322.534 283.552 322.717 283.589 322.937 283.589C323.45 283.589 324 283.552 324.513 283.589C324.879 283.589 325.245 283.699 325.648 283.808V283.808ZM319.823 280.694C319.823 279.961 319.969 279.302 319.896 278.422C319.749 278.606 319.786 278.422 319.786 278.496C319.31 283.002 319.31 287.656 319.456 292.126C319.53 291.393 319.603 290.66 319.639 289.891C319.676 289.158 319.676 288.388 319.713 287.656C319.749 286.923 319.713 286.153 319.749 285.421C319.786 284.651 319.749 283.772 319.786 283.039C319.823 282.233 319.823 281.5 319.823 280.694V280.694ZM325.319 284.175C325.355 284.212 325.539 284.358 325.502 284.212C325.429 283.955 325.172 283.882 324.879 283.845C324.366 283.772 323.816 283.845 323.303 283.845C323.23 283.882 323.45 283.955 323.487 283.955C323.89 283.918 324.989 283.735 325.319 284.175V284.175ZM356.038 288.792C356.148 289.195 356.148 289.634 356.184 289.964C356.111 292.162 355.562 294.104 354.316 295.863C352.85 297.915 350.835 298.904 348.27 298.721C346.292 298.611 344.899 297.585 344.203 295.68C343.8 294.654 343.727 293.591 343.8 292.529C343.947 290.917 344.35 289.378 345.009 287.912C345.376 287.143 345.815 286.41 346.365 285.787C347.501 284.541 348.93 284.065 350.505 284.321C351.385 284.431 352.191 284.688 352.997 284.944C354.792 285.604 355.708 286.996 356.038 288.792V288.792ZM344.679 293.225C344.679 291.686 345.009 290.184 345.669 288.755C346.292 287.436 347.134 285.421 348.527 284.834C348.82 284.688 348.71 284.615 348.453 284.761C347.061 285.311 346.072 286.96 345.412 288.279C344.606 289.817 344.24 291.54 344.203 293.298C344.203 293.885 344.679 294.068 344.679 293.225V293.225ZM350.432 295.863C351.934 293.848 352.63 291.576 352.301 289.121C352.154 288.095 351.714 287.179 350.872 286.447C350.285 286.483 349.809 286.556 349.333 286.63C349.259 286.703 349.186 286.813 349.076 286.923C347.794 289.195 347.244 291.686 347.501 294.288C347.574 295.02 347.83 295.68 348.233 296.303C348.453 296.596 348.6 296.889 349.003 296.962C349.626 296.816 350.102 296.376 350.432 295.863V295.863ZM355.562 291.906C355.708 290.477 356.148 288.645 355.268 287.436C355.158 287.253 355.049 287.363 355.159 287.582C355.708 288.792 355.305 290.514 355.085 291.833C355.012 292.492 355.525 292.456 355.562 291.906Z" fill="url(#paint5_linear_6_75)"/>
</g>
<defs>
<linearGradient id="paint0_linear_6_75" x1="132.088" y1="52.5659" x2="218.172" y2="52.5659" gradientUnits="userSpaceOnUse">
<stop stop-color="#EF4136"/>
<stop offset="1" stop-color="#FBB040"/>
</linearGradient>
<linearGradient id="paint1_linear_6_75" x1="136.548" y1="88.0835" x2="213.717" y2="88.0835" gradientUnits="userSpaceOnUse">
<stop stop-color="#EF4136"/>
<stop offset="1" stop-color="#FBB040"/>
</linearGradient>
<linearGradient id="paint2_linear_6_75" x1="113" y1="0" x2="237.262" y2="0" gradientUnits="userSpaceOnUse">
<stop stop-color="#EF4136"/>
<stop offset="1" stop-color="#FBB040"/>
</linearGradient>
<linearGradient id="paint3_linear_6_75" x1="6" y1="170" x2="356" y2="170" gradientUnits="userSpaceOnUse">
<stop stop-color="#EF4136"/>
<stop offset="1" stop-color="#FBB040"/>
</linearGradient>
<linearGradient id="paint4_linear_6_75" x1="162" y1="237" x2="200.157" y2="237" gradientUnits="userSpaceOnUse">
<stop stop-color="#7D141D"/>
<stop offset="1" stop-color="#FF1E27"/>
</linearGradient>
<linearGradient id="paint5_linear_6_75" x1="5" y1="273" x2="356.184" y2="273" gradientUnits="userSpaceOnUse">
<stop stop-color="#7D141D"/>
<stop offset="1" stop-color="#FF1E27"/>
</linearGradient>
<clipPath id="clip0_6_75">
<rect width="356.184" height="299.629" fill="white"/>
</clipPath>
</defs>
</svg>
